<?xml version="1.0" encoding="UTF-8"?>
<svg version="1.1" xmlns="http://www.w3.org/2000/svg" width="3999" height="3999">
<path d="M0 0 C83.76149763 -0.00522836 167.52299527 -0.01025756 264.35913086 -0.01586914 C265.22137758 -0.01591905 266.0836243 -0.01596896 266.97199971 -0.01602038 C359.76024248 -0.02139061 452.54848526 -0.02653951 820.59891263 -0.042239 C823.67117149 -0.04234323 826.74343035 -0.04244766 829.81568921 -0.04255217 C916.86667389 -0.04551292 1003.91765858 -0.04827977 1090.96864328 -0.05078693 C1094.19038656 -0.05087972 1097.41212983 -0.05097252 1100.6338731 -0.05106533 C1101.69795835 -0.05109598 1102.76204359 -0.05112663 1103.85837385 -0.05115821 C1143.87007018 -0.05231126 1183.88176651 -0.05350863 1223.89346284 -0.05473244 C1228.24085325 -0.05486537 1232.58824367 -0.05499779 1236.93563409 -0.05512976 C1339.58133672 -0.05824593 1442.22703922 -0.06215988 1544.8727417 -0.06866455 C1545.95354591 -0.06873299 1547.03435013 -0.06880142 1548.14790598 -0.06887193 C1584.09058275 -0.07114902 1620.03325952 -0.0735034 1655.97593628 -0.07586844 C1688.4512093 -0.07800509 1720.92648231 -0.08011399 1753.40175533 -0.08213139 C1754.46854424 -0.08219767 1755.53533315 -0.08226395 1756.634449 -0.08233224 C1823.42009255 -0.08647449 1890.20573608 -0.08941531 1956.99137974 -0.09113979 C1958.53806502 -0.09117997 1958.53806502 -0.09117997 1960.11599647 -0.09122096 C2005.39545762 -0.09239615 2050.67491877 -0.09332053 2095.95437993 -0.0939579 C2114.16916184 -0.09421546 2132.38394376 -0.09451019 2150.59872567 -0.09482527 C2153.61893241 -0.09487721 2156.63913914 -0.09492794 2159.65934587 -0.09497854 C2205.88717068 -0.09576165 2252.11499527 -0.09737666 2298.34281993 -0.10139394 C2299.34063881 -0.10148064 2300.33845769 -0.10156734 2301.36651351 -0.10165666 C2317.41905255 -0.10305653 2333.47159157 -0.10452544 2349.5241306 -0.10600626 C2395.06870037 -0.11020763 2440.61326991 -0.11394814 2486.15783989 -0.11413276 C2487.5426144 -0.11413872 2487.5426144 -0.11413872 2488.95536414 -0.11414481 C2509.09109727 -0.11422158 2529.22683039 -0.11402546 2549.36256351 -0.1135619 C2557.39195404 -0.11338145 2565.42134457 -0.11323843 2573.45073509 -0.11310768 C2574.76458083 -0.11308483 2574.76458083 -0.11308483 2576.1049689 -0.11306151 C2603.93511593 -0.11259543 2631.76526154 -0.11521769 2659.59540819 -0.11960873 C2686.97605342 -0.12391649 2714.35669689 -0.12522226 2741.73734234 -0.12209016 C2745.47950722 -0.1216626 2749.22167209 -0.12127018 2752.96383698 -0.12089889 C2753.69649861 -0.12082487 2754.42916024 -0.12075084 2755.18402374 -0.12067457 C2766.77894232 -0.1195948 2778.37385771 -0.12187275 2789.96877565 -0.12555815 C2801.28771933 -0.12908844 2812.60665713 -0.12903867 2823.9256012 -0.12530107 C2829.96193311 -0.1234113 2835.99825362 -0.12314937 2842.03458469 -0.12723524 C2847.49677835 -0.13090414 2852.95895105 -0.13008424 2858.42114382 -0.12547626 C2860.39397005 -0.12463262 2862.36679786 -0.12550725 2864.33962243 -0.12820339 C2866.99276405 -0.13159379 2869.64582955 -0.12895943 2872.29896813 -0.12467116 C2873.07571719 -0.12713146 2873.85246626 -0.12959175 2874.65275317 -0.13212659 C2879.88584159 -0.11415841 2879.88584159 -0.11415841 2881 1 C2881.24009467 7.43955404 2880.6567064 13.47465078 2879.64453125 19.82421875 C2879.43204742 21.21354362 2879.43204742 21.21354362 2879.215271 22.63093567 C2878.91129128 24.61651609 2878.60452223 26.60167116 2878.29519653 28.58642578 C2877.46766214 33.90290392 2876.66336223 39.22288643 2875.859375 44.54296875 C2875.69736099 45.61316254 2875.53534698 46.68335632 2875.36842346 47.78598022 C2873.98044096 57.00967821 2872.74139044 66.24762012 2871.5625 75.5 C2869.54971983 91.23442473 2867.2999272 106.93012889 2865 122.625 C2862.68764057 138.4110365 2860.37827742 154.19656057 2858.1875 170 C2858.0479187 171.00320282 2858.0479187 171.00320282 2857.90551758 172.02667236 C2857.0213683 178.38931834 2856.156958 184.75381722 2855.34057617 191.12548828 C2853.54471178 205.12856075 2851.55600925 219.09699204 2849.49838257 233.06384277 C2846.68902847 252.15320439 2843.94232715 271.25005707 2841.328125 290.3671875 C2841.16208613 291.58135408 2841.16208613 291.58135408 2840.99269295 292.82004929 C2839.90730808 300.76322665 2838.82773722 308.70718062 2837.75487995 316.65205956 C2837.2585869 320.3255254 2836.76063797 323.99876497 2836.26171875 327.671875 C2836.11825421 328.72885023 2836.11825421 328.72885023 2835.9718914 329.8071785 C2834.53843361 340.34268349 2832.9976596 350.8585928 2831.31535339 361.35760498 C2830.1732034 368.55285735 2829.29670666 375.75892213 2828.5 383 C2827.58539974 391.30492548 2826.5087683 399.55352039 2825.1953125 407.8046875 C2822.89895851 422.49416481 2820.78308805 437.20824406 2818.68797302 451.92745209 C2818.36933478 454.16477851 2818.0500495 456.40201177 2817.73059082 458.63922119 C2815.23131136 476.14534917 2812.76050054 493.65523621 2810.3359375 511.171875 C2810.22775192 511.95345852 2810.11956635 512.73504204 2810.00810242 513.54030991 C2809.04183006 520.52305316 2808.07693878 527.50598698 2807.11315918 534.48907471 C2804.60715209 552.64103337 2802.03361971 570.77836979 2799.25860596 588.89154053 C2797.53499616 600.15867281 2796.0345165 611.43496858 2794.67382812 622.75268555 C2793.0259879 636.30071247 2791.06891305 649.80431196 2789.125 663.3125 C2788.95086578 664.52255707 2788.77673157 665.73261414 2788.59732056 666.9793396 C2787.89745819 671.84090014 2787.19748225 676.70244426 2786.49702454 681.56391907 C2784.90288404 692.64227997 2783.35111707 703.72631139 2781.8125 714.8125 C2780.00319244 727.83682589 2778.17584719 740.85828752 2776.3125 753.875 C2776.20765289 754.60748962 2776.10280579 755.33997925 2775.99478149 756.09466553 C2775.06531129 762.58558855 2774.13298004 769.0760992 2773.19921875 775.56640625 C2771.7301333 785.7904332 2770.29610786 796.01920578 2768.875 806.25 C2768.77477539 806.97093842 2768.67455078 807.69187683 2768.57128906 808.43466187 C2767.27260027 817.77897554 2765.98186066 827.12435649 2764.70012856 836.47101212 C2763.92949771 842.09026157 2763.15681691 847.70922739 2762.38315392 853.32806015 C2761.89996396 856.83832073 2761.41782635 860.3487182 2760.93841553 863.85949707 C2758.88792175 878.87151269 2756.74213488 893.85979557 2754.3671875 908.82421875 C2752.67781037 919.46941726 2751.12899253 930.10746882 2749.88729858 940.81390381 C2748.11047316 956.04602138 2745.9891816 971.21417027 2743.6875 986.375 C2740.55311725 1007.02286329 2737.65558472 1027.69835019 2734.84057617 1048.39208984 C2732.9640604 1062.16349165 2730.99500567 1075.91746722 2728.94311523 1089.66381836 C2726.54473039 1105.73896819 2724.33149452 1121.83686835 2722.18258667 1137.947052 C2718.96502648 1162.0493584 2715.62716178 1186.13357684 2712.23471069 1210.21180725 C2711.35223353 1216.47986842 2710.47854455 1222.74907206 2709.61328125 1229.01953125 C2707.25271952 1246.10372666 2704.83639584 1263.17896915 2702.35546875 1280.24609375 C2702.1149746 1281.90167157 2701.87448596 1283.55725019 2701.63400269 1285.21282959 C2700.55570202 1292.63369651 2699.47575524 1300.05431118 2698.38939476 1307.47400284 C2695.83291567 1324.94736729 2693.38770738 1342.4292906 2691.11206627 1359.94154549 C2689.30401664 1373.84611124 2687.34355892 1387.72232233 2685.29064941 1401.59313965 C2684.32057061 1408.1545871 2683.36119188 1414.71758483 2682.40625 1421.28125 C2682.30753853 1421.95967705 2682.20882706 1422.6381041 2682.10712433 1423.33708954 C2679.71645041 1439.79368992 2677.47820999 1456.27075164 2675.25 1472.75 C2672.79380517 1490.91410801 2670.31106506 1509.07068779 2667.59619141 1527.19824219 C2666.3623142 1535.45630636 2665.21264448 1543.72143937 2664.125 1552 C2662.37638052 1565.30070792 2660.54619143 1578.58924139 2658.6875 1591.875 C2658.53765656 1592.94613037 2658.38781311 1594.01726074 2658.23342896 1595.12084961 C2655.92919829 1611.56888771 2653.54691733 1628.00458766 2651.13070679 1644.43649292 C2648.47920745 1662.49137343 2645.96986471 1680.56441085 2643.49203491 1698.64385986 C2641.0342501 1716.57528728 2638.51641152 1734.4968257 2635.93798828 1752.4112854 C2633.76154934 1767.54154496 2631.67492273 1782.68199522 2629.63571167 1797.83129883 C2627.4580694 1813.97462431 2625.09316236 1830.08686972 2622.62304688 1846.18798828 C2620.80363757 1858.13137061 2619.18503509 1870.09433162 2617.62890625 1882.07421875 C2615.94237363 1895.05244259 2614.17285889 1908.01487147 2612.28125 1920.96484375 C2612.16798559 1921.74041563 2612.05472118 1922.51598751 2611.93802452 1923.31506157 C2611.36264725 1927.25067171 2610.78536955 1931.18600032 2610.20709229 1935.1211853 C2606.91383552 1957.53815518 2603.62695195 1979.95072039 2600.84674072 2002.43817139 C2599.36331726 2014.43502995 2597.65541932 2026.38404702 2595.78564453 2038.3269043 C2594.33888227 2047.58335563 2593.04819578 2056.85461638 2591.79443359 2066.13891602 C2590.44037155 2076.16004398 2589.02856005 2086.17320966 2587.625 2096.1875 C2587.47282013 2097.27427032 2587.32064026 2098.36104065 2587.16384888 2099.48074341 C2585.27477573 2112.96918121 2583.37162122 2126.45544947 2581.4375 2139.9375 C2577.89147295 2164.66533592 2574.45487503 2189.40850784 2571.05078125 2214.15625 C2567.84904526 2237.43067089 2564.64210432 2260.70341081 2561.2956543 2283.95751953 C2559.82793701 2294.16403268 2558.38368076 2304.37359643 2556.95703125 2314.5859375 C2556.69102615 2316.48867683 2556.69102615 2316.48867683 2556.41964722 2318.42985535 C2555.54517631 2324.68674295 2554.67258841 2330.94388494 2553.80273438 2337.20141602 C2552.28967521 2348.05272077 2550.73583224 2358.89150243 2548.99720764 2369.70910645 C2547.97167296 2376.10514301 2547.08190095 2382.51334917 2546.25 2388.9375 C2546.00140286 2390.82232968 2545.75278014 2392.70715603 2545.50367737 2394.59191895 C2545.21978287 2396.74105023 2544.93674169 2398.89029273 2544.65380859 2401.03955078 C2543.29951307 2411.31929871 2541.93639683 2421.59785282 2540.5625 2431.875 C2540.33466827 2433.58011246 2540.33466827 2433.58011246 2540.10223389 2435.31967163 C2538.17237569 2449.72602853 2536.10560666 2464.09273519 2533.77587891 2478.43945312 C2532.08050665 2489.05614533 2530.7380793 2499.70382804 2529.4375 2510.375 C2527.99119338 2522.24077572 2526.4624477 2534.07000926 2524.58520508 2545.87695312 C2523.14279115 2554.97077222 2521.81068358 2564.07810119 2520.50848389 2573.19287109 C2520.25336873 2574.97717486 2519.9973909 2576.76135549 2519.74053955 2578.54541016 C2518.22956732 2589.04133475 2516.78962071 2599.54237472 2515.45703125 2610.0625 C2515.07386842 2613.03773373 2514.68952576 2616.01281288 2514.30487061 2618.987854 C2514.06310185 2620.8879018 2513.82745966 2622.78874088 2513.59844971 2624.69036865 C2512.33587414 2635.17186841 2510.87098492 2644.4719379 2506 2654 C2505.51297607 2655.01247803 2505.51297607 2655.01247803 2505.01611328 2656.04541016 C2504.36923824 2657.37613543 2503.69062566 2658.69144612 2503 2660 C2502.34 2660 2501.68 2660 2501 2660 C2500.71125 2660.763125 2500.4225 2661.52625 2500.125 2662.3125 C2499 2665 2499 2665 2497 2668 C2496.34 2668 2495.68 2668 2495 2668 C2495 2668.66 2495 2669.32 2495 2670 C2494.34 2670 2493.68 2670 2493 2670 C2493 2670.66 2493 2671.32 2493 2672 C2476.74950765 2684.90149739 2461.02930026 2687.16162362 2440.75540364 2687.12649983 C2439.32007238 2687.12761848 2437.88474141 2687.12917483 2436.44941104 2687.13112573 C2432.50400457 2687.13522085 2428.55862223 2687.1331071 2424.61321577 2687.12997987 C2420.30535966 2687.12767392 2415.99750757 2687.13118605 2411.68965226 2687.13394669 C2404.11010577 2687.13799982 2396.53056613 2687.13832659 2388.95101894 2687.13624074 C2377.60410874 2687.13313526 2366.25720484 2687.13577733 2354.91029509 2687.13953945 C2335.57264891 2687.1457789 2316.23500497 2687.14724472 2296.89735794 2687.14612198 C2277.29607573 2687.14499826 2257.69479541 2687.14602906 2238.09351349 2687.14969444 C2236.85625243 2687.1499241 2235.61899137 2687.15015375 2234.34423754 2687.15039036 C2229.3052025 2687.15133198 2224.26616746 2687.15228767 2219.22713242 2687.15326155 C2167.34176557 2687.1632747 2115.45640029 2687.16645365 2063.57103271 2687.16702999 C2057.91145121 2687.16709323 2052.25186972 2687.16715976 2046.59228822 2687.16723054 C2045.1737678 2687.16724823 2043.75524738 2687.16726561 2042.33672696 2687.16728266 C2010.50503577 2687.16767039 1978.6733448 2687.16984879 1946.84165372 2687.17241292 C1939.73808382 2687.17298447 1932.63451392 2687.17353845 1925.53094401 2687.17409355 C1924.47326338 2687.17417623 1924.47326338 2687.17417623 1923.39421547 2687.17426058 C1919.11401549 2687.17459508 1914.83381551 2687.17492885 1910.55361553 2687.17526215 C1908.40947221 2687.17542923 1906.2653289 2687.17559674 1904.12118558 2687.17576428 C1870.78339089 2687.17836618 1837.44559618 2687.18059647 1804.10780144 2687.18244648 C1803.01821986 2687.18250704 1803.01821986 2687.18250704 1801.90662653 2687.18256881 C1755.6172968 2687.18513201 1709.3279672 2687.18603131 1663.0386374 2687.18576848 C1660.76237404 2687.18575573 1658.48611067 2687.18574376 1656.20984731 2687.18573207 C1640.21805291 2687.18564973 1624.22625852 2687.18554702 1608.23446412 2687.18543919 C1603.64923993 2687.18540842 1599.06401574 2687.18537836 1594.47879155 2687.18534838 C1590.65411614 2687.18532328 1586.82944072 2687.18529749 1583.0047653 2687.18527026 C1510.76050054 2687.1847588 1438.51623689 2687.18617773 1366.27197266 2687.19561768 C1365.51130388 2687.19571703 1364.75063511 2687.19581639 1363.96691577 2687.19591876 C1340.19978627 2687.19903014 1316.4326568 2687.20239662 1292.66552734 2687.20581055 C1268.27863631 2687.20931194 1243.89174527 2687.21278239 1219.5048542 2687.21607494 C1218.75397521 2687.21617647 1218.00309622 2687.216278 1217.22946332 2687.2163826 C1170.20823719 2687.22273117 1123.18701138 2687.2266535 1076.16578484 2687.22793293 C1075.43962389 2687.22795296 1074.71346294 2687.22797299 1073.96529712 2687.22799362 C1042.07508644 2687.22886892 1010.18487579 2687.22918872 978.2946651 2687.22890273 C965.46549962 2687.22878845 952.63633414 2687.22873238 939.80716866 2687.22869941 C937.68002502 2687.22869301 935.55288138 2687.22868394 933.42573773 2687.22867426 C900.88498105 2687.22853775 868.34422539 2687.22988472 835.80346918 2687.23571944 C835.10160202 2687.23584511 834.39973485 2687.23597079 833.67659898 2687.23610027 C822.38607283 2687.23812931 811.0955467 2687.24027332 799.80502057 2687.24242707 C753.54992989 2687.25124335 707.29484474 2687.25377779 661.03975312 2687.24706676 C654.7495983 2687.24615442 648.45944347 2687.24531115 642.16928864 2687.24450874 C640.93621052 2687.24434866 639.7031324 2687.24418857 638.43268828 2687.24402363 C618.88225601 2687.24166762 599.33183121 2687.24603513 579.78140035 2687.25317993 C560.57261404 2687.26005992 541.36383882 2687.25983928 522.15505277 2687.25198779 C510.88400984 2687.24759497 499.61299949 2687.24870515 488.34195924 2687.25785458 C480.86305058 2687.26338183 473.38416632 2687.26169789 465.90525955 2687.2540718 C461.66147187 2687.24994844 457.41774846 2687.24895214 453.17396463 2687.25682249 C449.32060343 2687.26391044 445.46736077 2687.26173239 441.61400564 2687.2522888 C439.58756807 2687.24966704 437.56112492 2687.2567984 435.5346999 2687.26439499 C424.62355541 2687.22143509 414.18708644 2686.07483458 404 2682 C403.35804688 2681.74734375 402.71609375 2681.4946875 402.0546875 2681.234375 C395.61742526 2678.36757805 390.07288223 2673.84108093 385 2669 C384.67 2668.01 384.34 2667.02 384 2666 C383.34 2666 382.68 2666 382 2666 C371.49219823 2653.75249594 368.59814194 2638.40224332 366.83071899 2622.85238647 C366.352035 2618.65413885 365.81997286 2614.46243422 365.296875 2610.26953125 C365.19027054 2609.40451492 365.08366608 2608.5394986 364.97383118 2607.64826965 C364.01209242 2599.90876127 362.86415099 2592.20460173 361.67016602 2584.49804688 C358.42981399 2563.56515158 355.58767504 2542.57932181 352.73508453 2521.59099579 C349.84712206 2500.34477133 346.89582241 2479.11204314 343.75662231 2457.90115356 C341.77481524 2444.49912088 339.92962352 2431.08716555 338.20663452 2417.64953613 C336.3550814 2403.247157 334.21560309 2388.89419099 332.04199219 2374.537323 C330.02803478 2361.20954475 328.15950311 2347.87643298 326.5 2334.5 C324.62828084 2319.42288838 322.45895028 2304.40440094 320.18078613 2289.38363647 C317.38204538 2270.90170824 314.84449823 2252.3901359 312.39697266 2233.85864258 C310.8241113 2221.96963555 309.14666101 2210.10429926 307.33978271 2198.24868774 C306.41832128 2192.15044041 305.55645869 2186.04340589 304.6875 2179.9375 C304.53118103 2178.84143936 304.53118103 2178.84143936 304.3717041 2177.72323608 C302.38913324 2163.81884269 300.44653867 2149.90894889 298.51025391 2135.99804688 C296.30633985 2120.16898263 294.08238744 2104.34275752 291.85513687 2088.51696396 C290.97608467 2082.27045999 290.09741916 2076.02390161 289.21875 2069.77734375 C289.12306543 2069.09711214 289.02738087 2068.41688053 288.92879677 2067.71603584 C283.48885981 2029.04157579 278.09924557 1990.36021925 272.73059464 1951.67580986 C272.43015268 1949.51116409 272.12962188 1947.34653068 271.82907104 1945.18190002 C270.88934664 1938.41308538 269.95049353 1931.64415307 269.01440144 1924.87483501 C265.84471582 1901.93628577 265.84471582 1901.93628577 262.51580811 1879.02041626 C259.88041412 1861.29703649 257.36521595 1843.55678129 254.875 1825.8125 C254.70028168 1824.56757782 254.52556335 1823.32265564 254.34555054 1822.04000854 C252.36257455 1807.89496445 250.41687435 1793.74711158 248.57104492 1779.58349609 C246.75198111 1765.82458252 244.68158978 1752.10125833 242.66314697 1738.37051392 C240.08281846 1720.78628031 237.66452384 1703.18683782 235.375 1685.5625 C233.18010099 1668.68068141 230.84500038 1651.83289963 228.27563477 1635.00415039 C228.0313392 1633.40381982 227.78711785 1631.80347792 227.54296875 1630.203125 C227.42073441 1629.4020079 227.29850006 1628.60089081 227.17256165 1627.77549744 C225.64998121 1617.75568811 224.20636491 1607.7244632 222.76977539 1597.6920166 C222.47213548 1595.61433749 222.17367566 1593.53677562 221.87426758 1591.45935059 C220.3253475 1580.70679877 218.85022437 1569.95128761 217.53125 1559.16796875 C216.10124657 1547.50408422 214.42199285 1535.88315355 212.69821167 1524.25952148 C209.97170804 1505.85712898 207.34734057 1487.44652269 204.9375 1469 C202.94841887 1453.78722848 200.79046074 1438.60781103 198.5 1423.4375 C196.22525708 1408.36773488 194.03759275 1393.2912437 192 1378.1875 C191.87996613 1377.29788574 191.75993225 1376.40827148 191.63626099 1375.49169922 C191.39242174 1373.68387978 191.14859144 1371.87605913 190.9047699 1370.0682373 C190.78279739 1369.16400024 190.66082489 1368.25976318 190.53515625 1367.328125 C190.35117027 1365.96355164 190.35117027 1365.96355164 190.16346741 1364.57141113 C188.62527902 1353.18828282 187.03230177 1341.81281171 185.4375 1330.4375 C185.28979156 1329.383349 185.14208313 1328.329198 184.98989868 1327.24310303 C182.88542172 1312.23113843 180.7609141 1297.22208542 178.59741211 1282.21850586 C177.74316014 1276.27861469 176.90703069 1270.33787592 176.12744141 1264.38769531 C174.93659815 1255.39077857 173.6417129 1246.40901749 172.34862328 1237.42632866 C171.90510076 1234.34417063 171.46280021 1231.26183935 171.02082825 1228.17945862 C169.7652717 1219.42366172 168.50862979 1210.66802197 167.2487793 1201.9128418 C163.93572678 1178.88374857 160.67087048 1155.85296552 157.67489624 1132.7802887 C156.13521758 1120.93275061 154.48685796 1109.10390129 152.74194336 1097.28466797 C152.29810598 1094.27747417 151.85876749 1091.26964474 151.41992188 1088.26171875 C151.13045677 1086.28642191 150.8407533 1084.31115998 150.55078125 1082.3359375 C150.42367264 1081.46713959 150.29656403 1080.59834167 150.16560364 1079.70321655 C149.49419548 1075.16356169 148.76982624 1070.63861167 147.99023438 1066.11621094 C146.96735638 1060.03247926 146.26460746 1053.93686412 145.60546875 1047.8046875 C144.28241342 1035.95510141 142.61923453 1024.1812892 140.8130188 1012.39694214 C137.65821009 991.77363773 134.77059413 971.12383282 132.0625 950.4375 C129.37817744 929.94863416 126.4981715 909.49851272 123.4375 889.0625 C120.41306593 868.86666621 117.573569 848.65848885 114.94998169 828.40673828 C112.77131474 811.60073345 110.41325432 794.82891622 107.93121338 778.06515503 C105.70252213 763.00264523 103.61040364 747.9288139 101.68505859 732.82446289 C100.28241672 721.85764878 98.67315121 710.92860732 97 700 C96.75968743 698.42644423 96.5194515 696.85287676 96.27929688 695.27929688 C96.16213318 694.51162491 96.04496948 693.74395294 95.92425537 692.95301819 C93.38380919 676.2996027 90.89732846 659.64664934 88.75 642.9375 C86.32102828 624.04085664 83.66332656 605.17721444 81 586.3125 C80.7883649 584.81249066 80.57673558 583.3124805 80.3651123 581.81246948 C78.46442227 568.34393903 76.55826331 554.87621615 74.62475586 541.41235352 C74.39692805 539.82419388 74.16910411 538.23603369 73.94128418 536.64787292 C73.51215747 533.65679776 73.08145874 530.66595502 72.64978027 527.67524719 C71.53087707 519.89743026 70.48737851 512.11582436 69.5625 504.3125 C68.31885216 494.05201393 66.80356766 483.84210547 65.25 473.625 C62.92537368 458.32536557 60.70099639 443.0142841 58.5625 427.6875 C58.41671509 426.64315796 58.27093018 425.59881592 58.12072754 424.52282715 C56.47778359 412.74033964 54.85420199 400.95525897 53.24609375 389.16796875 C52.8092247 385.96697578 52.37234184 382.7659847 51.93539429 379.56500244 C51.64571184 377.44258666 51.35618079 375.32015021 51.06680298 373.19769287 C48.6252038 355.30847222 46.05776693 337.43939764 43.39648438 319.58154297 C41.81484503 308.91826839 40.38460876 298.24718976 39.0735321 287.54722595 C38.05564555 279.2954436 36.85530473 271.08801954 35.5625 262.875 C33.77130158 251.31381324 32.12884141 239.74238041 30.61645508 228.14089966 C29.23871914 217.63851411 27.75551562 207.15271045 26.25 196.66796875 C25.98610091 194.82567321 25.72227295 192.98336748 25.45851135 191.14105225 C24.64017655 185.42720024 23.82027663 179.71357352 23 174 C22.87098675 173.10128803 22.7419735 172.20257607 22.60905075 171.2766304 C22.10330508 167.75367625 21.59752107 164.23072761 21.09163761 160.70779324 C20.08456401 153.69443967 19.07847832 146.68094473 18.07312679 139.66734409 C17.44139339 135.26081468 16.80883646 130.8544064 16.17456055 126.44824219 C13.24498253 106.09254015 10.40512191 85.72987279 7.75215149 65.33618164 C6.53918755 56.02303813 5.27863798 46.71873648 3.9453125 37.421875 C3.79125443 36.34492371 3.63719635 35.26797241 3.47846985 34.15838623 C2.86992703 29.91358531 2.25893336 25.66917166 1.640625 21.42578125 C1.17415414 18.21691318 0.71534746 15.0070275 0.2578125 11.796875 C0.11522003 10.83271667 -0.02737244 9.86855835 -0.17428589 8.87518311 C-0.29836823 7.99694885 -0.42245056 7.1187146 -0.55029297 6.21386719 C-0.6617868 5.44467957 -0.77328064 4.67549194 -0.88815308 3.88299561 C-1 2 -1 2 0 0 Z M1406 434 C1405.33339355 434.20367188 1404.66678711 434.40734375 1403.97998047 434.6171875 C1393.56818728 437.83686871 1384.73526236 442.81108127 1375.71240234 448.86181641 C1374.22967839 449.84733951 1372.72045891 450.7927786 1371.20703125 451.73046875 C1366.74277165 454.51969628 1363.4234896 457.41071001 1360.19140625 461.58203125 C1359 463 1359 463 1357 464 C1357 464.66 1357 465.32 1357 466 C1356.34 466 1355.68 466 1355 466 C1355 466.66 1355 467.32 1355 468 C1354.34 468 1353.68 468 1353 468 C1329.39974212 495.47070018 1323.52186052 527.11329139 1323.62247658 562.29482174 C1323.62101123 565.06687161 1323.61502092 567.8389078 1323.60926348 570.61095163 C1323.5991311 576.63791036 1323.60004455 582.66478754 1323.60831411 588.69174796 C1323.62063784 597.7143338 1323.615546 606.73685403 1323.60716619 615.75944144 C1323.59338863 631.13973191 1323.59380526 646.51999258 1323.60200882 661.90028572 C1323.61026901 677.4817579 1323.61199844 693.06321048 1323.60579681 708.64468384 C1323.6054093 709.6296373 1323.60502178 710.61459075 1323.60462252 711.62939128 C1323.60302267 715.64110097 1323.60137654 719.65281064 1323.59967169 723.66452028 C1323.58381114 761.01269843 1323.5827243 798.36086344 1323.59111404 835.7090435 C1323.59136243 836.81530276 1323.59161082 837.92156202 1323.59186673 839.06134428 C1323.59211552 840.16937668 1323.59236431 841.27740908 1323.59262064 842.41901822 C1323.60019021 876.176122 1323.60214435 909.93322034 1323.5985527 943.69032478 C1323.59832027 945.95087218 1323.5980888 948.21141958 1323.59785829 950.47196698 C1323.59692689 959.5561861 1323.59597089 968.64040522 1323.594979 977.72462434 C1323.59222797 1003.11885841 1323.59051617 1028.5130925 1323.58962059 1053.9073267 C1323.58957965 1055.06372253 1323.58953872 1056.22011836 1323.58949654 1057.41155648 C1323.5882687 1094.25952978 1323.59164939 1131.10750119 1323.59816933 1167.9554739 C1323.59838007 1169.15060781 1323.59859082 1170.34574172 1323.59880795 1171.57709182 C1323.60224279 1190.98526784 1323.60590119 1210.39344383 1323.60957848 1229.80161981 C1323.62414699 1306.77408316 1323.6234717 1383.74653086 1323.60888672 1460.71899414 C1323.60522314 1480.11619026 1323.60158998 1499.51338638 1323.59816933 1518.91058254 C1323.59795798 1520.10494322 1323.59774664 1521.29930389 1323.59752889 1522.52985731 C1323.59106015 1559.33853184 1323.58831755 1596.14720508 1323.58962059 1632.95588017 C1323.58966134 1634.11144022 1323.5897021 1635.26700027 1323.58974408 1636.4575773 C1323.59068153 1661.82421669 1323.59258246 1687.19085595 1323.5953521 1712.55749521 C1323.59633952 1721.63390684 1323.59727876 1730.71031847 1323.59820423 1739.7867301 C1323.5984364 1742.04470071 1323.59867259 1744.30267132 1323.59891282 1746.56064193 C1323.6024934 1780.30796734 1323.59944465 1814.05528664 1323.59186673 1847.8026113 C1323.59161834 1848.90878776 1323.59136996 1850.01496422 1323.59111404 1851.15466118 C1323.590866 1852.25879663 1323.59061795 1853.36293208 1323.59036239 1854.50052618 C1323.58208746 1891.74210744 1323.58513206 1928.98367295 1323.60095628 1966.22525197 C1323.60261333 1970.22480633 1323.60422344 1974.2243607 1323.60579681 1978.2239151 C1323.60618743 1979.20547144 1323.60657805 1980.18702777 1323.60698051 1981.19832824 C1323.6128964 1996.73704447 1323.60877933 2012.2757411 1323.6004898 2027.81445557 C1323.59255157 2043.09556653 1323.59534399 2058.37664443 1323.60953206 2073.6577512 C1323.61753124 2082.61465903 1323.61738261 2091.57147619 1323.60508727 2100.52837966 C1323.59773783 2106.48243859 1323.60133003 2112.43642715 1323.61368783 2118.3904776 C1323.62038438 2121.76215182 1323.62089021 2125.13349953 1323.61123828 2128.505188 C1323.56194892 2147.04040824 1324.16959389 2164.53367581 1331 2182 C1331.3815625 2183.00546875 1331.763125 2184.0109375 1332.15625 2185.046875 C1336.05983175 2194.90592122 1341.42316229 2203.37624408 1347.58203125 2211.96875 C1349 2214 1349 2214 1350 2216 C1350.66 2216 1351.32 2216 1352 2216 C1352 2216.66 1352 2217.32 1352 2218 C1352.66 2218 1353.32 2218 1354 2218 C1354.20625 2218.53625 1354.4125 2219.0725 1354.625 2219.625 C1356.53250426 2222.91978009 1359.04819384 2225.59363628 1362 2228 C1362.66 2228 1363.32 2228 1364 2228 C1364 2228.66 1364 2229.32 1364 2230 C1366.0914291 2231.67555415 1368.17741005 2233.22471667 1370.375 2234.75 C1371.01767822 2235.19956055 1371.66035645 2235.64912109 1372.32250977 2236.11230469 C1374.20719919 2237.42007719 1376.10080886 2238.71340079 1378 2240 C1378.86753906 2240.5878125 1379.73507812 2241.175625 1380.62890625 2241.78125 C1404.55797949 2257.00516123 1436.41283067 2262.10252092 1464 2256 C1469.41905949 2254.58680769 1474.71138761 2252.83432631 1480 2251 C1481.70542969 2250.42765625 1481.70542969 2250.42765625 1483.4453125 2249.84375 C1495.59633321 2245.51037394 1507.18225061 2238.38148545 1517 2230 C1517 2229.34 1517 2228.68 1517 2228 C1517.66 2228 1518.32 2228 1519 2228 C1519 2227.34 1519 2226.68 1519 2226 C1519.66 2226 1520.32 2226 1521 2226 C1521 2225.34 1521 2224.68 1521 2224 C1522.32 2223.34 1523.64 2222.68 1525 2222 C1525 2221.34 1525 2220.68 1525 2220 C1525.66 2220 1526.32 2220 1527 2220 C1527 2219.34 1527 2218.68 1527 2218 C1527.66 2218 1528.32 2218 1529 2218 C1530.84062963 2215.5759028 1532.56080457 2213.15190822 1534.25 2210.625 C1534.99479614 2209.51898437 1534.99479614 2209.51898437 1535.75463867 2208.390625 C1537.17797536 2206.26575504 1538.58926916 2204.1332488 1540 2202 C1540.60972656 2201.10023437 1541.21945312 2200.20046875 1541.84765625 2199.2734375 C1556.51514647 2176.50949267 1557.30134327 2149.27466602 1557.25447559 2123.13679123 C1557.2557561 2120.37506299 1557.26005061 2117.6133412 1557.26419219 2114.85161597 C1557.27161486 2108.83797316 1557.27164719 2102.8243658 1557.26680271 2096.81072089 C1557.25958615 2087.80801062 1557.26393302 2078.80533079 1557.27048406 2069.80262132 C1557.28130976 2054.45735516 1557.28264268 2039.11210126 1557.27878571 2023.76683235 C1557.27490878 2008.21796669 1557.27536554 1992.66911017 1557.2810955 1977.12024498 C1557.28145433 1976.13781736 1557.28181316 1975.15538975 1557.28218286 1974.14319159 C1557.28365778 1970.14184721 1557.28516218 1966.14050284 1557.28670432 1962.13915849 C1557.30233876 1921.52495666 1557.30501834 1880.91076111 1557.30254826 1840.29655681 C1557.30220981 1834.68491355 1557.30188772 1829.07327028 1557.30158257 1823.46162701 C1557.30149101 1821.78971173 1557.30149101 1821.78971173 1557.30139759 1820.08402039 C1557.30012569 1795.38255138 1557.30272709 1770.68108324 1557.30610864 1745.97961448 C1557.30687938 1740.33937706 1557.30762411 1734.69913964 1557.30837366 1729.05890222 C1557.30867535 1726.7952466 1557.30897723 1724.53159098 1557.3092793 1722.26793535 C1557.30942898 1721.14588189 1557.30957866 1720.02382843 1557.30973287 1718.86777334 C1557.3100364 1716.59817247 1557.31034109 1714.32857159 1557.31064692 1712.05897071 C1557.31932032 1647.65782238 1557.32396357 1583.25667481 1557.31969929 1518.85552597 C1557.31962123 1517.66295877 1557.31954317 1516.47039157 1557.31946275 1515.24168597 C1557.31858995 1501.94326502 1557.31766069 1488.64484407 1557.31671212 1475.34642312 C1557.31662661 1474.14576924 1557.3165411 1472.94511536 1557.316453 1471.70807803 C1557.31593421 1464.4247666 1557.31593421 1464.4247666 1557.31541077 1457.14145518 C1557.30987472 1380.33990419 1557.31741776 1303.53836522 1557.33618164 1226.73681641 C1557.34090384 1207.38462705 1557.34558434 1188.03243769 1557.3500185 1168.68024826 C1557.35029182 1167.48866467 1557.35056515 1166.29708107 1557.35084675 1165.06938889 C1557.35921761 1128.34600925 1557.36389767 1091.62263061 1557.36472607 1054.89925003 C1557.36475243 1053.74635235 1557.3647788 1052.59345468 1557.36480596 1051.4056207 C1557.36534674 1026.09726704 1557.36497431 1000.78891346 1557.36376625 975.48055982 C1557.36334062 966.42491358 1557.3629755 957.36926733 1557.36263681 948.31362109 C1557.36255151 946.06080353 1557.36246257 943.80798598 1557.36236999 941.55516842 C1557.36092113 905.65604061 1557.36804806 869.75692096 1557.37937395 833.85779511 C1557.39102172 796.6978475 1557.39159015 759.53791447 1557.37953053 722.37796679 C1557.37827869 718.38709763 1557.37707521 714.39622846 1557.37590981 710.40535927 C1557.37561951 709.42593293 1557.37532922 708.4465066 1557.37503013 707.43740068 C1557.37070566 691.93246427 1557.37643395 676.42754858 1557.38635 660.92261542 C1557.39588996 645.67456551 1557.39470843 630.42654756 1557.38214377 615.1784995 C1557.3750978 606.24094947 1557.3762128 597.30349141 1557.38949216 588.36594795 C1557.39749616 582.42468148 1557.39455337 576.4834844 1557.38284252 570.54222427 C1557.37651296 567.17781588 1557.37637844 563.81373585 1557.38640973 560.44931496 C1557.43498218 542.96323524 1556.84700457 526.06517606 1551.3125 509.3125 C1551.05976318 508.53197266 1550.80702637 507.75144531 1550.54663086 506.94726562 C1547.89587029 499.12644634 1544.21693811 492.07698091 1540 485 C1539.34128906 483.88753906 1538.68257812 482.77507812 1538.00390625 481.62890625 C1535.63572185 477.72255538 1535.63572185 477.72255538 1533 474 C1532.34 474 1531.68 474 1531 474 C1530.5978125 473.13375 1530.5978125 473.13375 1530.1875 472.25 C1528.97070811 469.94449957 1527.69666121 467.97943808 1526 466 C1525.34 466 1524.68 466 1524 466 C1524 465.34 1524 464.68 1524 464 C1523.34 464 1522.68 464 1522 464 C1521.73832031 463.40445313 1521.47664063 462.80890625 1521.20703125 462.1953125 C1518.4596461 457.19845018 1513.40445384 453.63771328 1508 452 C1508 451.34 1508 450.68 1508 450 C1507.01 450 1506.02 450 1505 450 C1505 449.34 1505 448.68 1505 448 C1502.39198024 446.552241 1499.77699107 445.12121939 1497.1484375 443.7109375 C1495.23613577 442.67174624 1493.33976887 441.60140845 1491.4765625 440.4765625 C1467.47808148 426.855803 1431.96308582 425.45335047 1406 434 Z M633 460 C631.57300781 461.07894531 631.57300781 461.07894531 630.1171875 462.1796875 C629.41851563 462.78039063 628.71984375 463.38109375 628 464 C628 464.66 628 465.32 628 466 C626.68 466.66 625.36 467.32 624 468 C624 468.66 624 469.32 624 470 C623.34 470 622.68 470 622 470 C619.60179695 472.63684747 619.60179695 472.63684747 619 476 C618.34 476 617.68 476 617 476 C602.70210355 493.21211738 592.749985 518.66594958 592 541 C591.96350342 541.89944336 591.92700684 542.79888672 591.8894043 543.72558594 C591.64048928 556.16947206 593.01391152 568.48280394 594.2215271 580.85412598 C594.85166373 587.31082913 595.45819299 593.7697724 596.06529045 600.22867584 C596.20721782 601.73841636 596.34936661 603.24813608 596.49173164 604.75783539 C598.10088933 621.8336711 599.56627364 638.92095869 600.99974823 656.0123291 C601.18322147 658.1990074 601.36719971 660.38564262 601.55133057 662.57226562 C602.6186468 675.25307645 603.68090564 687.93422534 604.6862793 700.62011719 C606.81295471 727.40042953 609.25946092 754.1487832 611.72814941 780.8994751 C614.03491035 805.89716198 616.26952523 830.89647323 618.28225517 855.91971016 C619.89791352 875.99366459 621.66744481 896.05163123 623.49258423 916.10751343 C624.01739806 921.87458562 624.53872108 927.64197036 625.05932617 933.40942383 C625.14653647 934.37555194 625.23374678 935.34168005 625.32359982 936.33708477 C625.49809581 938.27037414 625.67257605 940.20366493 625.84704018 942.13695717 C626.10238595 944.96584665 626.35795351 947.79471601 626.61357117 950.62358093 C627.78588373 963.60099561 628.95085889 976.57899602 630.08325195 989.55996704 C630.22882485 991.22845495 630.37492222 992.89689726 630.52172852 994.5652771 C631.26829119 1003.05834355 631.96944549 1011.55406361 632.62158203 1020.05493164 C634.41356858 1043.35271827 636.49150478 1066.61614642 638.67163086 1089.88058472 C641.88890822 1124.23584513 644.93646185 1158.59904426 647.70578003 1192.99323273 C650.44000998 1226.93596655 653.4720262 1260.84811962 656.61211967 1294.75562859 C657.07086867 1299.71066125 657.52820826 1304.66582271 657.984375 1309.62109375 C658.0723019 1310.57615814 658.16022881 1311.53122253 658.25082016 1312.51522827 C659.82549888 1329.66872081 661.20925526 1346.83379262 662.53264046 1364.00823212 C663.24333634 1373.1992727 664.04682917 1382.38142628 664.875 1391.5625 C665.04030896 1393.41267674 665.20559113 1395.26285586 665.37084961 1397.11303711 C666.71528036 1412.10119644 668.13800363 1427.08177957 669.5625 1442.0625 C670.92055313 1456.3489006 672.26901457 1470.63420855 673.4375 1484.9375 C673.49374542 1485.62514435 673.54999084 1486.3127887 673.60794067 1487.02127075 C673.72687948 1488.47622885 673.84577986 1489.93119009 673.96464539 1491.38615417 C674.05755608 1492.52338676 674.05755608 1492.52338676 674.15234375 1493.68359375 C674.21633865 1494.46732864 674.28033356 1495.25106354 674.3462677 1496.05854797 C675.36837601 1508.54147858 676.43391776 1521.02076208 677.5 1533.5 C677.55965439 1534.19905457 677.61930878 1534.89810913 677.68077087 1535.61834717 C679.58961804 1557.98227229 681.55697053 1580.34086639 683.54805326 1602.69761038 C683.73074608 1604.74920805 683.91335487 1606.80081318 684.09593582 1608.85242081 C685.75131814 1627.45366039 685.75131814 1627.45366039 687.41455078 1646.05419922 C689.75706212 1672.18940905 692.08846392 1698.32064766 694.04527283 1724.48791504 C694.88351397 1735.67822353 695.86188937 1746.84911977 696.96292114 1758.01669312 C699.32596815 1782.05888146 701.45745756 1806.12165571 703.5625 1830.1875 C703.63840614 1831.05458084 703.71431229 1831.92166168 703.79251862 1832.8150177 C705.742371 1855.09662151 707.62026229 1877.3815873 709.35830688 1899.68084717 C710.59127539 1915.44997604 712.0308208 1931.19236775 713.55175781 1946.93609619 C715.91451609 1971.46330859 718.02007126 1996.01206144 720.125 2020.5625 C720.29674967 2022.56377185 720.46850256 2024.56504341 720.64025879 2026.5663147 C722.06197122 2043.13985141 723.48324272 2059.71343942 724.85424805 2076.29125977 C724.92193893 2077.10875104 724.98962982 2077.92624231 725.05937195 2078.76850605 C725.37257454 2082.55336922 725.68440301 2086.33833476 725.99331665 2090.12355042 C726.95302282 2101.8124589 728.10879774 2113.47572399 729.32421875 2125.140625 C729.76931096 2129.50265047 730.15269384 2133.86031184 730.45703125 2138.234375 C732.50652962 2167.44334353 741.06161166 2193.27393399 760 2216 C760.66 2216 761.32 2216 762 2216 C762 2216.66 762 2217.32 762 2218 C762.66 2218 763.32 2218 764 2218 C764 2218.66 764 2219.32 764 2220 C764.66 2220 765.32 2220 766 2220 C766 2220.66 766 2221.32 766 2222 C766.66 2222 767.32 2222 768 2222 C768.226875 2222.61875 768.45375 2223.2375 768.6875 2223.875 C770.37929835 2226.61410209 771.99244161 2227.05024472 775 2228 C775 2228.66 775 2229.32 775 2230 C778.63323689 2232.96235695 778.63323689 2232.96235695 783 2234 C783 2234.66 783 2235.32 783 2236 C801.01906808 2246.69719892 819.64424081 2253.89147651 840.8125 2254.6875 C841.77953857 2254.72512451 842.74657715 2254.76274902 843.74291992 2254.80151367 C866.10046455 2255.54532874 890.7877379 2250.80798957 909 2237 C911.25 2236.3125 911.25 2236.3125 913 2236 C913 2235.34 913 2234.68 913 2234 C913.763125 2233.71125 914.52625 2233.4225 915.3125 2233.125 C918.15029308 2232.03730987 918.15029308 2232.03730987 921 2230 C921 2229.34 921 2228.68 921 2228 C921.66 2228 922.32 2228 923 2228 C923 2227.34 923 2226.68 923 2226 C923.66 2226 924.32 2226 925 2226 C925 2225.34 925 2224.68 925 2224 C926.32 2223.34 927.64 2222.68 929 2222 C929 2221.34 929 2220.68 929 2220 C929.86625 2219.62875 929.86625 2219.62875 930.75 2219.25 C933.32939979 2217.81700012 935.06121592 2216.21575324 937 2214 C937 2213.34 937 2212.68 937 2212 C937.66 2212 938.32 2212 939 2212 C941.96235695 2208.36676311 941.96235695 2208.36676311 943 2204 C943.66 2204 944.32 2204 945 2204 C949.95345782 2195.22754976 954.46128042 2186.47106932 957.9375 2177 C958.21924072 2176.23647217 958.50098145 2175.47294434 958.79125977 2174.6862793 C968.75599562 2146.62599745 963.52265223 2115.32276701 960.71064377 2086.39123917 C959.95482154 2078.56377181 959.23112248 2070.73320697 958.50032234 2062.90337181 C958.21795583 2059.88212758 957.93417537 2056.86101844 957.6502533 2053.83992004 C955.8559724 2034.69977726 954.23720655 2015.54638127 952.65093613 1996.38805389 C952.00722464 1988.62032666 951.35850904 1980.85301698 950.70703125 1973.0859375 C950.63610071 1972.24025333 950.56517017 1971.39456917 950.49209023 1970.52325821 C948.898052 1951.5532945 947.16261355 1932.59693088 945.41302109 1913.64079285 C943.41519919 1891.98860946 941.49918134 1870.33068602 939.6640625 1848.6640625 C939.56400028 1847.48285639 939.46393806 1846.30165028 939.36084366 1845.08465004 C938.36427241 1833.31203596 937.37288655 1821.53899435 936.38845539 1809.76535892 C934.51890714 1787.41773907 932.58156601 1765.08934021 930.28070068 1742.78170776 C929.66644905 1736.69455285 929.17633585 1730.59834045 928.6875 1724.5 C927.28334389 1707.15168967 925.79897279 1689.81015856 924.3125 1672.46875 C924.24837662 1671.72028557 924.18425323 1670.97182114 924.11818671 1670.20067596 C922.00239549 1645.50597992 919.85196065 1620.81444405 917.67578125 1596.125 C917.53631194 1594.54225166 917.39684343 1592.95950324 917.25737572 1591.37675476 C916.06230636 1577.81622666 914.86564667 1564.25583885 913.66679752 1550.69564438 C912.81935666 1541.11010339 911.9732658 1531.52444449 911.12945318 1521.93858337 C910.99413 1520.40139828 910.85875596 1518.86421767 910.72333002 1517.32704163 C908.99285511 1497.68246106 907.29085082 1478.03671696 905.83283997 1458.36962891 C905.75553493 1457.34298126 905.75553493 1457.34298126 905.67666817 1456.29559326 C905.54491299 1454.53952917 905.41663805 1452.78320484 905.28874207 1451.02685547 C904.99837168 1447.98293047 904.52120256 1445.01193793 904 1442 C903.78214475 1439.66888009 903.59193608 1437.33509318 903.421875 1435 C903.31473076 1433.5698095 903.20737891 1432.13963455 903.09985352 1430.70947266 C903.04338654 1429.94725403 902.98691956 1429.1850354 902.92874146 1428.39971924 C901.66671164 1411.45615555 900.15476962 1394.54038713 898.5625 1377.625 C896.95191913 1360.48590056 895.40752305 1343.34450478 894 1326.1875 C892.64676925 1309.72527563 891.25785128 1293.26691164 889.8125 1276.8125 C889.6668158 1275.15182999 889.6668158 1275.15182999 889.51818848 1273.45761108 C888.03859957 1256.60884467 886.53190332 1239.7625468 885.02025414 1222.9166317 C884.40521937 1216.05982542 883.79141968 1209.2029084 883.17750645 1202.34600163 C882.56512644 1195.50882326 881.95024168 1188.67187581 881.33351994 1181.83508778 C880.94326989 1177.5030143 880.55519163 1173.17074804 880.16761971 1168.83843422 C879.98609806 1166.81450502 879.80368012 1164.79065595 879.62026787 1162.7668972 C878.7031809 1152.64307622 877.82276023 1142.53147724 877.3470192 1132.37567139 C877.16843769 1128.81933884 876.73896571 1125.47859877 876 1122 C875.82717309 1120.31465978 875.68408124 1118.62608789 875.56591797 1116.93603516 C875.49382111 1115.94284271 875.42172424 1114.94965027 875.34744263 1113.92636108 C875.27145844 1112.84980255 875.19547424 1111.77324402 875.1171875 1110.6640625 C874.37968051 1100.67057395 873.5501757 1090.68951893 872.6328125 1080.7109375 C872.45178734 1078.74161758 872.45178734 1078.74161758 872.2671051 1076.73251343 C872.01656443 1074.01303568 871.76516698 1071.29363834 871.51333618 1068.57427979 C870.84240968 1061.3261414 870.18007203 1054.07721639 869.51953125 1046.828125 C869.45366255 1046.10540028 869.38779385 1045.38267555 869.31992912 1044.63805008 C867.77488614 1027.66463635 866.34628493 1010.68213685 864.95703125 993.6953125 C864.72833065 990.89971355 864.49960487 988.1041167 864.27072144 985.30853271 C864.07374163 982.90120895 863.87711302 980.49385645 863.68069458 978.08648682 C862.05468252 958.17954837 860.31647665 938.28666172 858.44823265 918.40104485 C855.44649163 886.44774053 852.63890528 854.48001803 849.9375 822.5 C849.76691695 820.48116048 849.59633386 818.46232096 849.42575073 816.44348145 C849.34147355 815.445951 849.25719637 814.44842056 849.17036533 813.42066193 C848.75038777 808.44970433 848.33032069 803.47875431 847.91015625 798.5078125 C847.78725503 797.05329681 847.78725503 797.05329681 847.66187096 795.56939697 C846.10633284 777.16768027 844.50547276 758.77021564 842.875 740.375 C842.75448909 739.01422183 842.63398531 737.65344302 842.51348877 736.29266357 C841.54880197 725.40145514 840.57963118 714.51064634 839.61004639 703.61987305 C838.74111187 693.85893434 837.87341941 684.09788656 837.00847244 674.33659363 C836.87811225 672.86544919 836.74770829 671.39430863 836.61725998 669.923172 C835.0834425 652.62222494 833.59252243 635.32020435 832.27606201 618.00115967 C831.14888752 603.23700761 829.80150198 588.49394566 828.4375 573.75 C828.27808426 572.01970551 828.27808426 572.01970551 828.115448 570.25445557 C827.11949986 559.46918369 826.11085476 548.6845868 824.96484375 537.9140625 C824.89454453 537.22447449 824.8242453 536.53488647 824.7518158 535.82440186 C823.9306384 528.34986786 822.07576255 521.20772162 820 514 C819.70222656 512.94167969 819.40445313 511.88335938 819.09765625 510.79296875 C816.70961745 502.97291036 813.05555508 496.0760497 809 489 C808.55785156 488.21625 808.11570312 487.4325 807.66015625 486.625 C806.78349859 485.07759004 805.89390257 483.53751242 805 482 C804.34 482 803.68 482 803 482 C802.7525 481.0925 802.505 480.185 802.25 479.25 C800.95193799 475.87503877 799.78028159 474.25897879 797 472 C796.34 472 795.68 472 795 472 C795 471.34 795 470.68 795 470 C794.34 470 793.68 470 793 470 C792.7525 469.4225 792.505 468.845 792.25 468.25 C790.81700012 465.67060021 789.21575324 463.93878408 787 462 C786.34 462 785.68 462 785 462 C785 461.34 785 460.68 785 460 C782.90858778 458.32445937 780.82252166 456.77534519 778.625 455.25 C777.66315796 454.57674683 777.66315796 454.57674683 776.68188477 453.88989258 C767.46408754 447.49059859 758.59316403 442.80494317 748 439 C746.80375 438.50242187 745.6075 438.00484375 744.375 437.4921875 C738.9544519 435.45867322 733.32578874 434.68666629 727.625 433.8125 C726.5525 433.63525391 725.48 433.45800781 724.375 433.27539062 C691.01352067 428.01953713 658.91329511 439.17313417 633 460 Z M2156.125 433.3125 C2155.25367432 433.44930176 2154.38234863 433.58610352 2153.48461914 433.72705078 C2142.56590212 435.4932691 2132.92782958 438.05575726 2123 443 C2122.3920459 443.3005127 2121.7840918 443.60102539 2121.15771484 443.91064453 C2117.09442474 445.91949626 2113.04352345 447.95167498 2109 450 C2109 450.66 2109 451.32 2109 452 C2108.01 452 2107.02 452 2106 452 C2106 452.66 2106 453.32 2106 454 C2105.01 454 2104.02 454 2103 454 C2103 454.66 2103 455.32 2103 456 C2102.26120605 456.25273682 2101.52241211 456.50547363 2100.76123047 456.76586914 C2097.80747042 458.08605102 2096.11479218 459.48434598 2093.8203125 461.74609375 C2093.05968506 462.49511963 2092.29905762 463.24414551 2091.51538086 464.01586914 C2090.72655518 464.81500732 2089.93772949 465.61414551 2089.125 466.4375 C2088.31361572 467.25790771 2087.50223145 468.07831543 2086.66625977 468.92358398 C2081.19243015 474.55747684 2076.64168031 480.00986559 2073 487 C2072.26171355 488.30746056 2071.52059136 489.61332206 2070.77734375 490.91796875 C2059.1010481 511.75233019 2055.84104028 532.75183391 2053.95890427 556.27638626 C2053.65555847 560.06720981 2053.34188918 563.8570603 2053.02554321 567.64682007 C2052.69028998 571.66401043 2052.35527322 575.68121065 2052.02401543 579.69873238 C2050.8141217 594.35925495 2049.51431295 609.01157297 2048.2109375 623.6640625 C2047.97551227 626.31841213 2047.74016444 628.97276848 2047.50494385 631.62713623 C2047.033131 636.9502025 2046.56074034 642.27321714 2046.08789062 647.59619141 C2045.60830428 652.99521407 2045.12948819 658.39430441 2044.65136719 663.79345703 C2040.07547669 715.46473904 2040.07547669 715.46473904 2037.89704895 738.40664673 C2037.09349705 746.89890819 2036.36229987 755.39352268 2035.72128296 763.89953613 C2035.42302531 767.845044 2035.11291361 771.78963557 2034.8046875 775.734375 C2034.73982651 776.5664447 2034.67496552 777.3985144 2034.60813904 778.25579834 C2031.8519254 813.53888418 2028.69535783 848.78518703 2025.46484375 884.02734375 C2025.3455098 885.3296846 2025.22617584 886.63202545 2025.10322571 887.97383118 C2024.10307177 898.88488041 2024.10307177 898.88488041 2023.60205078 904.31515503 C2021.53629522 926.67449468 2021.53629522 926.67449468 2019.77841187 949.0597229 C2018.61738539 965.16281602 2017.19212114 981.23828199 2015.6875 997.3125 C2015.53217804 998.97220322 2015.53217804 998.97220322 2015.37371826 1000.66543579 C2014.93856535 1005.31131828 2014.5028557 1009.9571482 2014.06652832 1014.60292053 C2012.81051516 1027.98891082 2011.57696435 1041.37693937 2010.35419369 1054.76600361 C2010.02216766 1058.401551 2009.68931599 1062.03701737 2009.35409546 1065.67227173 C2007.57034806 1084.97671043 2007.57034806 1084.97671043 2006.24780273 1104.31665039 C2005.96454775 1108.5269636 2005.550571 1112.71354524 2005.11328125 1116.91015625 C2004.18850107 1125.80491383 2003.40920854 1134.70947326 2002.66796875 1143.62109375 C2002.60931011 1144.32504461 2002.55065147 1145.02899548 2002.4902153 1145.75427818 C2002.18275276 1149.4457496 2001.87625031 1153.13729999 2001.57019043 1156.82888794 C1999.24779918 1184.82154752 1996.77141356 1212.79416707 1994.078125 1240.75390625 C1992.51171616 1257.02859647 1991.03137537 1273.30158821 1989.79992676 1289.60542297 C1988.76676106 1303.21233635 1987.6062863 1316.80843356 1986.44033051 1330.40447617 C1986.24647954 1332.66607209 1986.05317143 1334.92771398 1985.85992432 1337.18936157 C1984.4392239 1353.79999703 1982.98419932 1370.40667099 1981.4140625 1387.00390625 C1981.3491713 1387.69067192 1981.28428009 1388.37743759 1981.21742249 1389.08501434 C1980.54817422 1396.16195707 1979.87072917 1403.23803985 1979.18066406 1410.31298828 C1977.77373398 1424.88012785 1976.55888756 1439.45290858 1975.4397316 1454.04458427 C1973.81412776 1475.23354241 1972.03053209 1496.4049824 1970.125 1517.5703125 C1970.06191603 1518.27146407 1969.99883206 1518.97261565 1969.93383646 1519.69501424 C1969.02640837 1529.7782341 1968.11278888 1539.86088987 1967.19790649 1549.94343567 C1966.15073306 1561.48664561 1965.10638309 1573.03011039 1964.06616354 1584.5739491 C1963.9388624 1585.98662419 1963.81151171 1587.39929481 1963.68411112 1588.81196094 C1961.79400803 1609.77400119 1960.00589406 1630.74257214 1958.32077026 1651.72215271 C1957.13651128 1666.45521992 1955.84760451 1681.1748579 1954.47781372 1695.89190674 C1953.83341349 1702.82440687 1953.19930233 1709.75784754 1952.56640625 1716.69140625 C1952.50114935 1717.40590691 1952.43589245 1718.12040756 1952.36865807 1718.85655975 C1950.87086791 1735.27404343 1949.46060621 1751.69877362 1948.0625 1768.125 C1947.56402743 1773.97788379 1947.06533891 1779.83074917 1946.56640625 1785.68359375 C1946.47215866 1786.78945642 1946.47215866 1786.78945642 1946.37600708 1787.91765976 C1944.77667246 1806.67653797 1943.14121316 1825.43224557 1941.5 1844.1875 C1941.42646175 1845.02830864 1941.35292351 1845.86911728 1941.27715683 1846.73540497 C1939.67022416 1865.10789448 1938.05326945 1883.4794133 1936.3984375 1901.84765625 C1936.33441994 1902.55838602 1936.27040237 1903.26911579 1936.20444489 1904.00138283 C1935.69916494 1909.61025504 1935.19361171 1915.21910271 1934.6875 1920.82789993 C1932.76442027 1942.14256969 1930.94766356 1963.46456214 1929.19921875 1984.79431152 C1927.37862349 2006.95843324 1925.35965112 2029.10109667 1923.29209423 2051.24317932 C1921.50116917 2070.42748683 1919.79140014 2089.61494958 1918.26611328 2108.82226562 C1918.02373192 2111.71661045 1917.73635519 2114.60284867 1917.44140625 2117.4921875 C1915.93838481 2133.90608802 1915.20258713 2152.09708669 1920 2168 C1920.31324219 2169.05574219 1920.62648438 2170.11148438 1920.94921875 2171.19921875 C1921.89100426 2174.16602922 1922.9217475 2177.080424 1924 2180 C1924.27328125 2180.804375 1924.5465625 2181.60875 1924.828125 2182.4375 C1928.14626551 2191.60763378 1933.6127172 2199.91907579 1939 2208 C1939.66 2208 1940.32 2208 1941 2208 C1941.20625 2208.680625 1941.4125 2209.36125 1941.625 2210.0625 C1944.63348487 2216.48971768 1950.22457207 2221.93636128 1956 2226 C1956.66 2226 1957.32 2226 1958 2226 C1958 2226.66 1958 2227.32 1958 2228 C1958.66 2228 1959.32 2228 1960 2228 C1960 2228.66 1960 2229.32 1960 2230 C1962.21702895 2231.68397281 1964.42298573 2233.23099237 1966.75 2234.75 C1967.7723877 2235.42216553 1967.7723877 2235.42216553 1968.81542969 2236.10791016 C1994.78955822 2252.91648329 2026.84681493 2259.13054318 2057.25830078 2252.80200195 C2078.94635361 2247.93032977 2101.93600615 2236.73777095 2117 2220 C2117 2219.34 2117 2218.68 2117 2218 C2117.66 2218 2118.32 2218 2119 2218 C2120.97071775 2215.66545743 2122.81142413 2213.32803837 2124.625 2210.875 C2125.16334473 2210.14796875 2125.70168945 2209.4209375 2126.25634766 2208.671875 C2141.13730782 2188.25557112 2147.66611323 2167.01198833 2149.875 2142.0625 C2150.03941177 2140.2820645 2150.20472097 2138.50171167 2150.37084961 2136.72143555 C2150.72891617 2132.87261516 2151.08195197 2129.02337396 2151.43212891 2125.17382812 C2152.02077752 2118.73360778 2152.63979767 2112.29645479 2153.26171875 2105.859375 C2155.34190456 2084.26621207 2157.33070041 2062.67432558 2158.97900391 2041.04370117 C2159.80270711 2030.26469794 2160.77381097 2019.50563261 2161.81176758 2008.74487305 C2162.82499904 1998.16386595 2163.70628086 1987.57410132 2164.56964111 1976.97991943 C2166.24112155 1956.47057304 2168.11041798 1935.98410795 2170.0625 1915.5 C2171.89173782 1896.30270407 2173.66449889 1877.10821408 2174.97485352 1857.8671875 C2175.99497571 1843.0205046 2177.4084027 1828.2082032 2178.77904129 1813.39072037 C2184.54466605 1751.30369393 2184.54466605 1751.30369393 2189.71179199 1689.16494751 C2192.0246973 1659.58193881 2194.77116069 1630.03772766 2197.50368023 1600.49101543 C2197.97524862 1595.38997594 2198.44525266 1590.28879373 2198.9140625 1585.1875 C2199.00511576 1584.19682337 2199.09616901 1583.20614674 2199.18998146 1582.1854496 C2200.5696244 1567.13251585 2201.83959775 1552.07367598 2202.9803772 1537.00073242 C2203.72658547 1527.17568259 2204.58996197 1517.36466999 2205.49267578 1507.55279541 C2206.20668234 1499.77759048 2206.87335832 1491.9983736 2207.540802 1484.21905899 C2207.94795436 1479.47631123 2208.35757693 1474.73377645 2208.7668457 1469.99121094 C2208.85187159 1469.00559992 2208.93689747 1468.0199889 2209.02449989 1467.00451088 C2214.59151587 1402.48040527 2214.59151587 1402.48040527 2217.36450195 1375.33544922 C2218.46396547 1364.4440287 2219.34815678 1353.54436495 2220.14313316 1342.62711334 C2222.0358213 1316.63859003 2224.3484307 1290.68964815 2226.66674805 1264.73614502 C2227.11223448 1259.74171995 2227.55507491 1254.74706182 2227.99784851 1249.75239563 C2229.96310894 1227.58703637 2231.9419835 1205.42375214 2234.0479126 1183.27128601 C2234.84741331 1174.79908448 2235.55678156 1166.32286736 2236.21746826 1157.83882141 C2236.93226189 1148.70433868 2237.71702735 1139.57667982 2238.515625 1130.44921875 C2238.5840435 1129.66715435 2238.65246201 1128.88508995 2238.7229538 1128.07932663 C2239.15537636 1123.14049683 2239.58932727 1118.20180207 2240.02363586 1113.26313782 C2240.33098767 1109.76599841 2240.63753367 1106.26878856 2240.94407272 1102.77157784 C2242.51786272 1084.81712074 2244.09888861 1066.86330785 2245.6875 1048.91015625 C2245.82098554 1047.40137242 2245.95446944 1045.89258844 2246.08795166 1044.38380432 C2246.21911569 1042.90129593 2246.35028024 1041.41878759 2246.48144531 1039.9362793 C2246.5774169 1038.85152046 2246.5774169 1038.85152046 2246.6753273 1037.7448473 C2246.99451154 1034.1372319 2247.31377397 1030.52962347 2247.63317871 1026.92202759 C2248.96200052 1011.90954513 2250.27769575 996.89657958 2251.5 981.875 C2252.87010707 965.07365646 2254.40728522 948.28735544 2255.9375 931.5 C2256.03606985 930.41827892 2256.03606985 930.41827892 2256.13663101 929.3147049 C2257.38419465 915.62529533 2258.63560056 901.93624148 2259.89941406 888.24832153 C2261.51037485 870.79750936 2263.08708374 853.34811459 2264.4375 835.875 C2267.5118222 796.11095864 2271.13653628 756.39072165 2274.67757034 716.66609192 C2277.85604852 681.00746554 2281.01090172 645.34718089 2284.01382446 609.67327881 C2284.65901118 602.01196056 2285.31448065 594.35163614 2285.97952271 586.6920166 C2286.38138738 582.03866552 2286.77414244 577.38458016 2287.16418457 572.73022461 C2287.34251068 570.62264731 2287.5243931 568.51536701 2287.71032715 566.40844727 C2289.02225699 551.50477716 2289.29451233 537.74957109 2285.8125 523.0625 C2285.59327881 522.12374023 2285.37405762 521.18498047 2285.14819336 520.21777344 C2282.23106173 508.23775831 2277.88716936 497.29153326 2271 487 C2270.63406738 486.44441406 2270.26813477 485.88882813 2269.89111328 485.31640625 C2268.6881833 483.49512033 2267.47216699 481.6834256 2266.25 479.875 C2265.86094482 479.29347168 2265.47188965 478.71194336 2265.07104492 478.11279297 C2264.09952422 476.70441681 2263.05538769 475.34667469 2262 474 C2261.34 474 2260.68 474 2260 474 C2259.773125 473.443125 2259.54625 472.88625 2259.3125 472.3125 C2257.04399551 468.31561114 2254.38100054 465.46033351 2250 464 C2250 463.34 2250 462.68 2250 462 C2249.34 462 2248.68 462 2248 462 C2248 461.34 2248 460.68 2248 460 C2247.34 460 2246.68 460 2246 460 C2246 459.34 2246 458.68 2246 458 C2244.35 457.34 2242.7 456.68 2241 456 C2241 455.34 2241 454.68 2241 454 C2240.01 454 2239.02 454 2238 454 C2238 453.34 2238 452.68 2238 452 C2222.23625372 441.0781723 2203.94664328 435.07821458 2185.0625 432.875 C2183.95334229 432.74327393 2183.95334229 432.74327393 2182.82177734 432.60888672 C2173.75610687 431.62370409 2165.12467481 431.87290444 2156.125 433.3125 Z " fill="#4B4B4B" transform="translate(559,1188)"/>
<path d="M0 0 C1.25352984 -0.00175304 2.50705969 -0.00350607 3.79857528 -0.00531223 C7.25377628 -0.0100007 10.70895063 -0.00855419 14.16415286 -0.00603446 C17.93261142 -0.00439131 21.70106451 -0.00855057 25.46952128 -0.01194364 C32.06663618 -0.01708296 38.66374374 -0.01851739 45.26086044 -0.01748753 C55.07178583 -0.01595972 64.88270312 -0.02013078 74.69362693 -0.02536215 C93.23961284 -0.03502511 111.78559599 -0.03784602 130.33158413 -0.03841921 C144.65934112 -0.03887913 158.98709703 -0.04093942 173.31485367 -0.04411983 C177.44233727 -0.04501742 181.56982088 -0.04590723 185.69730449 -0.04679471 C186.72348555 -0.04701576 187.74966662 -0.04723681 188.80694408 -0.04746456 C217.66687904 -0.05361767 246.52681362 -0.05756524 275.38674927 -0.05712128 C277.01839257 -0.05709791 277.01839257 -0.05709791 278.68299836 -0.05707407 C284.19593193 -0.05699096 289.70886549 -0.05689192 295.22179905 -0.05678936 C296.86405773 -0.05675944 296.86405773 -0.05675944 298.53949336 -0.05672892 C300.75352638 -0.05668848 302.96755941 -0.05664669 305.18159243 -0.05660353 C339.60943229 -0.05599111 374.03726229 -0.06349163 408.46509933 -0.07717609 C447.16832483 -0.0925537 485.87154385 -0.10114127 524.5747726 -0.10021287 C528.70602846 -0.10013825 532.83728433 -0.10008954 536.96854019 -0.10005856 C538.49430265 -0.10004107 538.49430265 -0.10004107 540.0508886 -0.10002324 C556.38519811 -0.09999253 572.71949903 -0.10636517 589.05380599 -0.11499082 C605.48721935 -0.12348896 621.92062022 -0.12444041 638.35403457 -0.1178815 C648.10249446 -0.11419996 657.85091625 -0.1159762 667.59937206 -0.12582384 C674.12887041 -0.13185934 680.65834141 -0.13048908 687.18783855 -0.12335334 C690.89647703 -0.11950164 694.60504224 -0.11860846 698.31367531 -0.12681069 C720.52797615 -0.17269751 742.70734836 0.26173692 764.56959152 4.56613445 C765.73909348 4.78640301 766.90859543 5.00667156 768.11353683 5.23361492 C770.38485039 5.66355341 772.65512075 6.09905628 774.92408371 6.54123211 C777.53506463 7.04899319 780.14827342 7.53780399 782.76490402 8.0153532 C788.36889685 9.06819082 793.65784007 10.1721797 798.92115402 12.37863445 C801.57059372 13.36066616 804.2584678 13.97710883 807.00709152 14.62863445 C811.58128224 15.7278142 815.63891036 17.21499838 819.94459152 19.12863445 C822.47267835 19.94427723 825.01453048 20.69329232 827.56568527 21.43332195 C830.38477282 22.25729171 833.16589751 23.17802861 835.94459152 24.12863445 C835.94459152 24.78863445 835.94459152 25.44863445 835.94459152 26.12863445 C837.23429855 26.30652508 837.23429855 26.30652508 838.55006027 26.48800945 C846.89335541 28.06257839 854.81173326 31.72751504 862.04224777 36.11300945 C864.00094981 37.15872307 865.77684316 37.6844633 867.94459152 38.12863445 C867.94459152 38.78863445 867.94459152 39.44863445 867.94459152 40.12863445 C868.93459152 40.12863445 869.92459152 40.12863445 870.94459152 40.12863445 C870.94459152 40.78863445 870.94459152 41.44863445 870.94459152 42.12863445 C871.50275558 42.24078289 872.06091965 42.35293133 872.63599777 42.4684782 C881.36343235 44.96414054 889.56690217 51.23162832 897.18287277 56.02267742 C898.41497958 56.7961591 899.64956656 57.5656977 900.88599777 58.33224773 C902.84771333 59.54872252 904.80303291 60.77490646 906.75709152 62.00363445 C907.37431076 62.38495525 907.99153 62.76627605 908.62745285 63.15915203 C910.10199596 64.09527974 911.52893886 65.10562908 912.94459152 66.12863445 C912.94459152 66.78863445 912.94459152 67.44863445 912.94459152 68.12863445 C913.93459152 68.12863445 914.92459152 68.12863445 915.94459152 68.12863445 C915.94459152 68.78863445 915.94459152 69.44863445 915.94459152 70.12863445 C917.59459152 70.78863445 919.24459152 71.44863445 920.94459152 72.12863445 C920.94459152 72.78863445 920.94459152 73.44863445 920.94459152 74.12863445 C921.48084152 74.37613445 922.01709152 74.62363445 922.56959152 74.87863445 C927.79738546 77.63010495 931.83604375 80.911967 935.94459152 85.12863445 C936.70771652 85.68550945 937.47084152 86.24238445 938.25709152 86.81613445 C938.81396652 87.24925945 939.37084152 87.68238445 939.94459152 88.12863445 C939.94459152 88.78863445 939.94459152 89.44863445 939.94459152 90.12863445 C940.84177902 90.56175945 940.84177902 90.56175945 941.75709152 91.00363445 C943.94459152 92.12863445 943.94459152 92.12863445 946.94459152 94.12863445 C946.94459152 94.78863445 946.94459152 95.44863445 946.94459152 96.12863445 C947.52209152 96.37613445 948.09959152 96.62363445 948.69459152 96.87863445 C951.27399131 98.31163434 953.00580744 99.91288122 954.94459152 102.12863445 C954.94459152 102.78863445 954.94459152 103.44863445 954.94459152 104.12863445 C955.60459152 104.12863445 956.26459152 104.12863445 956.94459152 104.12863445 C956.94459152 104.78863445 956.94459152 105.44863445 956.94459152 106.12863445 C957.60459152 106.12863445 958.26459152 106.12863445 958.94459152 106.12863445 C958.94459152 106.78863445 958.94459152 107.44863445 958.94459152 108.12863445 C959.60459152 108.12863445 960.26459152 108.12863445 960.94459152 108.12863445 C960.94459152 108.78863445 960.94459152 109.44863445 960.94459152 110.12863445 C961.60459152 110.12863445 962.26459152 110.12863445 962.94459152 110.12863445 C962.94459152 110.78863445 962.94459152 111.44863445 962.94459152 112.12863445 C963.60459152 112.12863445 964.26459152 112.12863445 964.94459152 112.12863445 C969.94459152 117.60482493 969.94459152 117.60482493 969.94459152 120.12863445 C970.60459152 120.12863445 971.26459152 120.12863445 971.94459152 120.12863445 C971.94459152 120.78863445 971.94459152 121.44863445 971.94459152 122.12863445 C972.60459152 122.12863445 973.26459152 122.12863445 973.94459152 122.12863445 C976.94459152 125.59017291 976.94459152 125.59017291 976.94459152 128.12863445 C977.60459152 128.12863445 978.26459152 128.12863445 978.94459152 128.12863445 C979.43959152 130.10863445 979.43959152 130.10863445 979.94459152 132.12863445 C980.60459152 132.12863445 981.26459152 132.12863445 981.94459152 132.12863445 C983.45240402 133.80832195 983.45240402 133.80832195 985.06959152 136.00363445 C985.60841965 136.72293133 986.14724777 137.4422282 986.70240402 138.18332195 C987.94459152 140.12863445 987.94459152 140.12863445 987.94459152 142.12863445 C988.60459152 142.12863445 989.26459152 142.12863445 989.94459152 142.12863445 C991.33321851 143.88349273 992.62771983 145.7129307 993.88209152 147.56613445 C994.27106613 148.139445 994.66004074 148.71275555 995.06080246 149.30343914 C996.36610103 151.23824341 997.65716425 153.18189541 998.94459152 155.12863445 C999.41203781 155.8345573 999.8794841 156.54048016 1000.36109543 157.26779461 C1010.14768071 172.10125883 1010.14768071 172.10125883 1013.69605637 178.84421062 C1014.56824698 180.44004316 1015.48255469 182.01325351 1016.42750168 183.56711102 C1021.18530777 191.39130448 1024.96875709 199.45610954 1028.6067009 207.84616375 C1029.56822997 210.06299536 1030.54061324 212.27480793 1031.51490402 214.48605633 C1036.43587504 225.7019271 1041.35239782 236.93648846 1044.44459152 248.81613445 C1044.86052309 250.37752837 1045.27720998 251.93872125 1045.69459152 253.4997282 C1045.90084152 254.2755827 1046.10709152 255.05143719 1046.31959152 255.85080242 C1046.90650522 257.98982775 1047.53872666 260.10753975 1048.19459152 262.2262907 C1052.57055685 276.56859392 1054.89019534 291.3029807 1056.94459152 306.12863445 C1057.11265305 307.3216618 1057.28071457 308.51468914 1057.45386887 309.74386883 C1060.1985828 330.46148155 1060.10015078 351.19311899 1060.02613068 372.04551983 C1060.0137903 375.89955133 1060.00851892 379.75359262 1060.00257492 383.60763836 C1059.98999424 391.11466307 1059.9698378 398.62164048 1059.94459152 406.12863445 C1060.50472884 406.12816651 1061.06486615 406.12769857 1061.64197732 406.12721645 C1122.65343137 406.07635399 1183.66488777 406.02924097 1244.67635727 406.00160503 C1245.58837774 406.00119086 1246.5003982 406.00077669 1247.44005565 406.00034997 C1267.26287451 405.9913703 1287.0856936 405.98305989 1306.90851302 405.97543846 C1316.63025604 405.9716966 1326.35199899 405.96780692 1336.07374191 405.96383953 C1337.04114888 405.96344725 1338.00855585 405.96305498 1339.00527818 405.96265081 C1370.33617583 405.9498771 1401.6670572 405.9273509 1432.997945 405.89974279 C1465.20666421 405.87141285 1497.41537442 405.85297066 1529.62410588 405.84688948 C1534.17808627 405.84602508 1538.73206663 405.84504817 1543.28604698 405.84400272 C1544.18229576 405.84380045 1545.07854454 405.84359819 1546.00195237 405.84338979 C1560.40279296 405.83985088 1574.80360564 405.82595358 1589.20443487 405.80813835 C1603.69804799 405.790431 1618.19163355 405.78374191 1632.6852571 405.78813032 C1641.28585445 405.79040419 1649.88635062 405.78439954 1658.48692962 405.76624182 C1664.24664393 405.75491772 1670.00629266 405.75469526 1675.76601165 405.76313901 C1679.03854204 405.76762938 1682.31084637 405.76593498 1685.58336332 405.75398491 C1699.84591472 405.70496206 1713.59281557 406.28757504 1727.66041294 408.73198172 C1730.82443944 409.28142202 1733.99550722 409.78441555 1737.16652144 410.29166012 C1742.68370275 411.18096228 1747.70156622 412.32382181 1752.88428879 414.36593914 C1756.43337761 415.67976228 1760.09722745 416.55469327 1763.75709152 417.50363445 C1770.87155733 419.41876076 1777.34220202 421.83230155 1783.94459152 425.12863445 C1786.19167955 426.17656807 1788.44180136 427.21801582 1790.69459152 428.25363445 C1791.79029465 428.76152508 1792.88599777 429.2694157 1794.01490402 429.79269695 C1796.1809587 430.78041789 1798.36985198 431.7183974 1800.56959152 432.62863445 C1805.52286005 434.83008713 1810.21525604 437.48602204 1814.94459152 440.12863445 C1814.94459152 440.78863445 1814.94459152 441.44863445 1814.94459152 442.12863445 C1816.33677902 442.56175945 1816.33677902 442.56175945 1817.75709152 443.00363445 C1820.94459152 444.12863445 1820.94459152 444.12863445 1823.94459152 446.12863445 C1823.94459152 446.78863445 1823.94459152 447.44863445 1823.94459152 448.12863445 C1824.49631027 448.22273602 1825.04802902 448.31683758 1825.61646652 448.4137907 C1828.56864718 449.32024886 1830.67180496 450.79206963 1833.19459152 452.56613445 C1834.08662277 453.18359539 1834.97865402 453.80105633 1835.89771652 454.4372282 C1836.57318527 454.99539227 1837.24865402 455.55355633 1837.94459152 456.12863445 C1837.94459152 456.78863445 1837.94459152 457.44863445 1837.94459152 458.12863445 C1838.64841965 458.35164227 1839.35224777 458.57465008 1840.07740402 458.8044157 C1843.57776824 460.42106893 1846.06788683 462.68262207 1848.81959152 465.31613445 C1849.37332443 465.8378825 1849.92705734 466.35963055 1850.49757004 466.89718914 C1852.32439399 468.6297631 1854.13630652 470.37672622 1855.94459152 472.12863445 C1856.59444016 472.75656902 1857.24428879 473.38450359 1857.9138298 474.03146648 C1859.91232112 475.97150814 1861.89945992 477.92239518 1863.88209152 479.87863445 C1864.80320724 480.78005169 1864.80320724 480.78005169 1865.74293137 481.69967937 C1869.40065736 485.35092534 1872.58443303 489.13246931 1875.58741379 493.34054852 C1876.92537604 495.10331799 1878.37591531 496.57219162 1879.94459152 498.12863445 C1919.50748306 547.01236983 1931.15340922 605.90813324 1931.05811691 667.24460125 C1931.05783423 669.81879964 1931.05799435 672.39299812 1931.05855942 674.96719646 C1931.05907927 680.46934979 1931.05598939 685.97149109 1931.05032158 691.4736414 C1931.04213267 699.42845055 1931.03958386 707.383254 1931.03833359 715.33806691 C1931.03615457 728.24978607 1931.02952594 741.16149884 1931.02003098 754.07321453 C1931.01082692 766.60251109 1931.0037608 779.1318059 1930.99952316 791.66110516 C1930.99926044 792.43571926 1930.99899772 793.21033335 1930.99872703 794.00842061 C1930.99742183 797.89512114 1930.99615816 801.78182169 1930.99491513 805.66852224 C1930.98457839 837.82189761 1930.96699169 869.97526514 1930.94459152 902.12863445 C1927.66175354 903.77005344 1924.02225705 903.26405432 1920.4143387 903.25377829 C1919.51424973 903.25515871 1918.61416076 903.25653913 1917.68679637 903.25796138 C1914.6286065 903.26140506 1911.57046613 903.25763734 1908.51227707 903.25398362 C1906.30168173 903.25497379 1904.09108655 903.25640265 1901.88049175 903.25823306 C1895.74151404 903.26202093 1889.60255197 903.25949929 1883.46357464 903.25604311 C1877.47302132 903.25365115 1871.48247032 903.25596637 1865.49191733 903.25815373 C1853.03018195 903.26253368 1840.5684507 903.26212636 1828.10671508 903.25919642 C1815.39952474 903.25622874 1802.69233704 903.25544853 1789.98514647 903.25732063 C1789.18105458 903.25743772 1788.37696269 903.25755481 1787.54850438 903.25767545 C1783.44329334 903.25828291 1779.33808232 903.25892516 1775.23287129 903.25957906 C1745.20252768 903.26428584 1715.17218565 903.26403021 1685.14184189 903.26129818 C1654.68953607 903.25854265 1624.23723135 903.25795474 1593.78492546 903.26003551 C1592.82572513 903.26010003 1591.8665248 903.26016454 1590.8782578 903.26023101 C1582.08824103 903.26082252 1573.29822426 903.26143642 1564.5082075 903.26207722 C1542.46310792 903.26368174 1520.41800833 903.26493757 1498.37290871 903.26595759 C1497.36254867 903.2660045 1496.35218862 903.2660514 1495.31121161 903.26609972 C1445.46311818 903.26838045 1395.61502495 903.26684149 1345.76693153 903.26492977 C1343.58235985 903.26484614 1341.39778817 903.2647625 1339.21321649 903.26467888 C1337.58920479 903.26461669 1337.58920479 903.26461669 1335.93238477 903.26455325 C1321.65557395 903.26400676 1307.37876313 903.26347016 1293.10195231 903.26295996 C1292.01071836 903.2629208 1290.9194844 903.26288164 1289.79518275 903.26284129 C1239.27203892 903.26104165 1188.74889519 903.26146797 1138.22575134 903.26239041 C1132.71742301 903.26249021 1127.20909468 903.26258571 1121.70076635 903.26268169 C1105.09882524 903.26297227 1088.49688414 903.26326921 1071.89494303 903.26357929 C1021.265924 903.26452391 970.63690497 903.26512408 920.00788593 903.26542759 C918.31680486 903.26543789 918.31680486 903.26543789 916.59156052 903.2654484 C843.55685526 903.26588728 770.52215011 903.26478569 697.48744488 903.26257801 C695.73799618 903.26252533 695.73799618 903.26252533 693.95320509 903.26247159 C654.88549445 903.26129517 615.81778382 903.26003914 576.75007318 903.25877496 C458.59857341 903.25495433 340.44707404 903.25286092 129.44469234 903.25889029 C90.38572643 903.26015346 51.32676052 903.26140195 12.26779461 903.26257801 C11.10179097 903.26261326 9.93578733 903.2626485 8.73445025 903.26268481 C-64.26219853 903.2648894 -137.25884722 903.26587231 -210.25549603 903.26542759 C-211.38250673 903.26542083 -212.50951744 903.26541408 -213.67067999 903.26540712 C-264.27075458 903.26510042 -314.87082917 903.26446218 -365.47090375 903.26351709 C-382.06532148 903.26320752 -398.6597392 903.26291319 -415.25415693 903.26262404 C-420.7592137 903.26252805 -426.26427047 903.26243069 -431.76932725 903.26233018 C-482.29524981 903.26141049 -532.82117223 903.2611468 -583.34709477 903.26295996 C-584.43767886 903.26299893 -585.52826294 903.2630379 -586.65189503 903.26307805 C-600.92128931 903.26358988 -615.19068359 903.26413252 -629.46007787 903.26467888 C-630.54194456 903.26472029 -631.62381125 903.2647617 -632.73846178 903.26480437 C-634.92114316 903.26488793 -637.10382455 903.26497156 -639.28650593 903.26505527 C-689.06468697 903.26695925 -738.84286777 903.26826843 -788.62104881 903.26595759 C-790.13453284 903.26588756 -790.13453284 903.26588756 -791.6785923 903.26581612 C-813.68580194 903.26478622 -835.69301154 903.26346678 -857.70022114 903.26186231 C-866.47586192 903.26122637 -875.2515027 903.26062579 -884.02714348 903.26003551 C-885.46309719 903.25993739 -885.46309719 903.25993739 -886.92806007 903.25983728 C-917.34493826 903.25777522 -947.7618153 903.25878534 -978.1786934 903.26155229 C-1008.10410366 903.264261 -1038.02951212 903.26395136 -1067.95492218 903.25918392 C-1072.04483132 903.2585327 -1076.13474046 903.25791628 -1080.2246496 903.25732063 C-1081.42576719 903.25714365 -1081.42576719 903.25714365 -1082.65114978 903.25696309 C-1095.32378793 903.25518703 -1107.99642335 903.25676315 -1120.66906118 903.25974198 C-1133.03990063 903.26258201 -1145.41073561 903.26192385 -1157.78157461 903.25740518 C-1164.37893398 903.25509309 -1170.97628514 903.25450954 -1177.57364429 903.25822169 C-1183.54339265 903.26155206 -1189.51312157 903.26039415 -1195.48286866 903.25544699 C-1197.6391164 903.25448073 -1199.79536568 903.25523292 -1201.9516121 903.25780599 C-1204.85119897 903.26103056 -1207.75071584 903.25823206 -1210.65029949 903.25377829 C-1211.49946114 903.25618999 -1212.34862279 903.25860169 -1213.22351661 903.26108648 C-1218.94124996 903.24279297 -1218.94124996 903.24279297 -1220.05540848 902.12863445 C-1220.15472806 900.69061305 -1220.18463558 899.24773611 -1220.18683624 897.80629063 C-1220.19067739 896.86751666 -1220.19451853 895.92874269 -1220.19847608 894.96152103 C-1220.19760959 893.91789374 -1220.19674311 892.87426645 -1220.19585037 891.79901409 C-1220.19882149 890.69957789 -1220.20179262 889.60014168 -1220.20485377 888.46738923 C-1220.2135846 884.7514361 -1220.21505279 881.03551502 -1220.21654129 877.31955242 C-1220.22116688 874.66710029 -1220.2261705 872.01465114 -1220.23158646 869.36220074 C-1220.24519891 862.12747698 -1220.25120142 854.89275875 -1220.25559711 847.65802431 C-1220.25835943 843.13323347 -1220.26259723 838.60844476 -1220.26710129 834.08365536 C-1220.27930682 821.54038597 -1220.28959768 808.99711831 -1220.29297638 796.45384312 C-1220.29319595 795.6500063 -1220.29341551 794.84616948 -1220.29364173 794.01797397 C-1220.29386001 793.21223683 -1220.29407829 792.40649969 -1220.29430318 791.57634628 C-1220.29474664 789.94371056 -1220.2951932 788.31107485 -1220.29564285 786.67843914 C-1220.29586428 785.86859995 -1220.29608571 785.05876076 -1220.29631385 784.22438098 C-1220.3002465 771.15494029 -1220.31764756 758.08555589 -1220.34100237 745.01613687 C-1220.36482242 731.57675445 -1220.37718335 718.1374001 -1220.3783443 704.69799626 C-1220.37925608 697.16141557 -1220.38488007 689.62490784 -1220.40316391 682.08834743 C-1220.41871051 675.65730489 -1220.42360166 669.22635774 -1220.41542581 662.79529993 C-1220.4115675 659.52358172 -1220.41390092 656.25209119 -1220.42648315 652.9803896 C-1220.48386869 637.11151189 -1219.57306784 621.80309565 -1217.05540848 606.12863445 C-1216.93525706 605.36191347 -1216.81510564 604.59519248 -1216.69131327 603.80523753 C-1214.98882117 593.007721 -1212.06422003 582.74739882 -1208.75902176 572.34494305 C-1208.15733311 570.44968645 -1207.57153457 568.54939764 -1206.98900223 566.6481657 C-1203.27554469 554.88629393 -1197.58805157 544.10706765 -1191.93040848 533.19113445 C-1191.41542801 532.19557537 -1190.90044754 531.20001629 -1190.3698616 530.17428875 C-1185.14145811 520.1816463 -1185.14145811 520.1816463 -1182.05540848 516.12863445 C-1181.39540848 516.12863445 -1180.73540848 516.12863445 -1180.05540848 516.12863445 C-1179.9754866 515.59625164 -1179.89556473 515.06386883 -1179.81322098 514.5153532 C-1178.77650403 511.2502292 -1176.90068643 508.70016944 -1174.93040848 505.94113445 C-1174.52878494 505.37177166 -1174.12716141 504.80240887 -1173.71336746 504.21579266 C-1165.80461751 493.07584746 -1165.80461751 493.07584746 -1163.05540848 490.12863445 C-1162.39540848 490.12863445 -1161.73540848 490.12863445 -1161.05540848 490.12863445 C-1160.71509598 489.32425945 -1160.71509598 489.32425945 -1160.36790848 488.50363445 C-1158.59970759 485.30403284 -1156.51870645 482.83826222 -1154.05540848 480.12863445 C-1153.39540848 480.12863445 -1152.73540848 480.12863445 -1152.05540848 480.12863445 C-1152.05540848 479.46863445 -1152.05540848 478.80863445 -1152.05540848 478.12863445 C-1151.39540848 478.12863445 -1150.73540848 478.12863445 -1150.05540848 478.12863445 C-1150.05540848 477.46863445 -1150.05540848 476.80863445 -1150.05540848 476.12863445 C-1149.39540848 476.12863445 -1148.73540848 476.12863445 -1148.05540848 476.12863445 C-1148.05540848 475.46863445 -1148.05540848 474.80863445 -1148.05540848 474.12863445 C-1146.59447098 472.62082195 -1146.59447098 472.62082195 -1144.68040848 471.00363445 C-1143.74068192 470.19539227 -1143.74068192 470.19539227 -1142.78197098 469.37082195 C-1141.05540848 468.12863445 -1141.05540848 468.12863445 -1139.05540848 468.12863445 C-1138.77310379 467.3107243 -1138.77310379 467.3107243 -1138.48509598 466.4762907 C-1136.37757708 463.01558343 -1133.38596905 460.98499431 -1130.18040848 458.56613445 C-1129.55521317 458.08466961 -1128.93001785 457.60320477 -1128.28587723 457.10715008 C-1127.08040604 456.18074675 -1125.87124501 455.25911936 -1124.65794754 454.34298992 C-1123.33712729 453.34211242 -1122.03362081 452.31842908 -1120.73509598 451.2887907 C-1119.05540848 450.12863445 -1119.05540848 450.12863445 -1117.05540848 450.12863445 C-1117.05540848 449.46863445 -1117.05540848 448.80863445 -1117.05540848 448.12863445 C-1110.43040848 444.12863445 -1110.43040848 444.12863445 -1107.05540848 444.12863445 C-1107.05540848 443.46863445 -1107.05540848 442.80863445 -1107.05540848 442.12863445 C-1105.64212719 441.31026003 -1104.22462502 440.49917226 -1102.80540848 439.69113445 C-1102.01650223 439.23867352 -1101.22759598 438.78621258 -1100.41478348 438.3200407 C-1098.2670738 437.23551843 -1096.40335787 436.59714729 -1094.05540848 436.12863445 C-1094.05540848 435.46863445 -1094.05540848 434.80863445 -1094.05540848 434.12863445 C-1093.10665848 433.73675945 -1092.15790848 433.34488445 -1091.18040848 432.94113445 C-1087.19161063 431.23859878 -1083.34310239 429.290535 -1079.48509598 427.3122282 C-1075.38923769 425.31697891 -1072.68417813 424.12863445 -1068.05540848 424.12863445 C-1068.05540848 423.46863445 -1068.05540848 422.80863445 -1068.05540848 422.12863445 C-1067.11181473 421.85599773 -1067.11181473 421.85599773 -1066.14915848 421.5778532 C-1062.10074575 420.38893682 -1058.10146858 419.19209513 -1054.18040848 417.62863445 C-1048.94553308 415.61036924 -1043.50099675 414.43557564 -1038.05540848 413.12863445 C-1037.22093705 412.90991042 -1036.38646563 412.69118639 -1035.52670719 412.46583436 C-1014.22684311 406.93789377 -993.05136896 405.54027979 -971.13202286 405.64761639 C-968.42758267 405.64586712 -965.72318608 405.64252253 -963.01875466 405.63725972 C-957.19338913 405.62906172 -951.36818892 405.63537072 -945.54284286 405.65181255 C-936.88112463 405.67619108 -928.21950819 405.67713395 -919.5577619 405.6736446 C-904.97959217 405.66841735 -890.40149556 405.68164596 -875.82334709 405.70571423 C-861.40736718 405.72945328 -846.99141779 405.74479226 -832.57541847 405.74912548 C-831.22651432 405.74953792 -831.22651432 405.74953792 -829.85035957 405.74995869 C-825.28267229 405.75131218 -820.71498498 405.75251766 -816.14729764 405.75366619 C-783.8677052 405.76204837 -751.58815243 405.78894318 -719.30858231 405.82687664 C-687.96646204 405.86366571 -656.62435267 405.89197495 -625.28221512 405.90890789 C-623.83083741 405.90969705 -623.83083741 405.90969705 -622.35013895 405.91050215 C-612.63247881 405.91577662 -602.91481859 405.92087982 -593.1971583 405.92585758 C-573.40448033 405.93600006 -553.61180307 405.94728507 -533.81912613 405.95926189 C-532.90926516 405.95981105 -531.99940419 405.96036021 -531.06197167 405.96092601 C-470.39310077 405.99767447 -409.72425191 406.06104882 -349.05540848 406.12863445 C-349.0598497 405.36173794 -349.06429092 404.59484142 -349.06886673 403.80470562 C-349.10958446 396.44033578 -349.13970902 389.07602337 -349.15903282 381.71156883 C-349.16930242 377.92890951 -349.18313688 374.14634603 -349.20628738 370.36374187 C-349.34855805 346.47460907 -348.84554057 322.68485846 -345.30540848 299.00363445 C-345.04727371 297.27113445 -345.04727371 297.27113445 -344.7839241 295.50363445 C-339.9026773 264.19514618 -330.20648645 232.53021249 -316.05540848 204.12863445 C-315.34771569 202.67452914 -314.64068371 201.22010204 -313.93431473 199.7653532 C-306.92983825 185.45784879 -299.09108849 171.77128066 -290.47337723 158.37863445 C-289.05494021 156.20980471 -289.05494021 156.20980471 -288.05540848 154.12863445 C-287.39540848 154.12863445 -286.73540848 154.12863445 -286.05540848 154.12863445 C-285.39540848 152.14863445 -284.73540848 150.16863445 -284.05540848 148.12863445 C-283.39540848 148.12863445 -282.73540848 148.12863445 -282.05540848 148.12863445 C-281.76665848 147.55113445 -281.47790848 146.97363445 -281.18040848 146.37863445 C-280.13874181 144.29530112 -279.09707514 142.21196779 -278.05540848 140.12863445 C-277.39540848 140.12863445 -276.73540848 140.12863445 -276.05540848 140.12863445 C-275.68222488 139.29138836 -275.68222488 139.29138836 -275.30150223 138.4372282 C-272.9650609 134.10858611 -269.56962393 130.51491238 -266.41868973 126.75949383 C-264.96504808 125.02053856 -263.52565354 123.27034825 -262.08665848 121.51925945 C-261.09754646 120.32616023 -260.10797109 119.13344497 -259.11790848 117.94113445 C-258.64554764 117.36435955 -258.1731868 116.78758465 -257.68651199 116.19333172 C-256.52024797 114.80028826 -255.29270245 113.45898985 -254.05540848 112.12863445 C-253.39540848 112.12863445 -252.73540848 112.12863445 -252.05540848 112.12863445 C-251.80790848 111.5562907 -251.56040848 110.98394695 -251.30540848 110.39425945 C-249.86224648 107.77852834 -248.17324625 105.98089989 -246.05540848 103.87863445 C-245.35415848 103.1722282 -244.65290848 102.46582195 -243.93040848 101.73800945 C-242.05540848 100.12863445 -242.05540848 100.12863445 -240.05540848 100.12863445 C-239.39540848 98.80863445 -238.73540848 97.48863445 -238.05540848 96.12863445 C-237.39540848 96.12863445 -236.73540848 96.12863445 -236.05540848 96.12863445 C-236.05540848 95.46863445 -236.05540848 94.80863445 -236.05540848 94.12863445 C-235.39540848 94.12863445 -234.73540848 94.12863445 -234.05540848 94.12863445 C-234.05540848 93.46863445 -234.05540848 92.80863445 -234.05540848 92.12863445 C-233.39540848 92.12863445 -232.73540848 92.12863445 -232.05540848 92.12863445 C-232.05540848 91.46863445 -232.05540848 90.80863445 -232.05540848 90.12863445 C-230.44603348 88.69113445 -230.44603348 88.69113445 -228.30540848 87.12863445 C-227.60931473 86.61300945 -226.91322098 86.09738445 -226.19603348 85.56613445 C-224.20439227 84.22868196 -222.22512925 83.14508022 -220.05540848 82.12863445 C-220.05540848 81.46863445 -220.05540848 80.80863445 -220.05540848 80.12863445 C-218.31992679 78.68336709 -216.51564885 77.31991225 -214.68040848 76.00363445 C-213.6826741 75.27918133 -212.68493973 74.5547282 -211.65697098 73.80832195 C-209.05540848 72.12863445 -209.05540848 72.12863445 -207.05540848 72.12863445 C-207.05540848 71.46863445 -207.05540848 70.80863445 -207.05540848 70.12863445 C-205.31992679 68.68336709 -203.51564885 67.31991225 -201.68040848 66.00363445 C-200.6826741 65.27918133 -199.68493973 64.5547282 -198.65697098 63.80832195 C-196.05540848 62.12863445 -196.05540848 62.12863445 -194.05540848 62.12863445 C-194.05540848 61.46863445 -194.05540848 60.80863445 -194.05540848 60.12863445 C-193.57974442 59.87211102 -193.10408035 59.61558758 -192.61400223 59.3512907 C-187.59897303 56.60826368 -182.69184344 53.71694433 -177.80540848 50.75363445 C-172.04809929 47.27218621 -166.22212786 43.97713776 -160.27025223 40.8356657 C-157.99506868 39.62757918 -155.74215057 38.40118156 -153.49681473 37.1403532 C-152.61727127 36.65139568 -152.61727127 36.65139568 -151.71995926 36.15256023 C-150.08831575 35.24424639 -148.46041221 34.32922369 -146.83275223 33.4137907 C-144.05540848 32.12863445 -144.05540848 32.12863445 -140.05540848 32.12863445 C-140.05540848 31.46863445 -140.05540848 30.80863445 -140.05540848 30.12863445 C-139.18400223 29.82570477 -138.31259598 29.52277508 -137.41478348 29.2106657 C-130.49341523 26.77620176 -123.69839085 24.19242737 -116.94212723 21.32394695 C-112.37016921 19.43082225 -107.72231929 17.77041415 -103.05540848 16.12863445 C-101.98290848 15.73675945 -100.91040848 15.34488445 -99.80540848 14.94113445 C-97.05540848 14.12863445 -97.05540848 14.12863445 -93.74290848 13.69113445 C-90.88401438 13.25503196 -88.81978878 12.74936048 -86.16478348 11.7809782 C-80.09432214 9.71843954 -73.88989114 8.42384413 -67.61790848 7.12863445 C-66.3539827 6.8673576 -65.09005692 6.60608074 -63.78783035 6.33688641 C-42.8318045 2.14960069 -21.37075343 -0.03843821 0 0 Z M-29.68040848 240.44113445 C-30.74896072 240.76706585 -30.74896072 240.76706585 -31.83909988 241.09958172 C-44.21341757 244.96394494 -56.65649851 250.25918907 -67.05540848 258.12863445 C-67.05540848 258.78863445 -67.05540848 259.44863445 -67.05540848 260.12863445 C-68.70540848 260.78863445 -70.35540848 261.44863445 -72.05540848 262.12863445 C-72.05540848 262.78863445 -72.05540848 263.44863445 -72.05540848 264.12863445 C-72.65353348 264.41738445 -73.25165848 264.70613445 -73.86790848 265.00363445 C-76.2486864 266.17605471 -76.2486864 266.17605471 -79.05540848 268.12863445 C-79.05540848 268.78863445 -79.05540848 269.44863445 -79.05540848 270.12863445 C-79.71540848 270.12863445 -80.37540848 270.12863445 -81.05540848 270.12863445 C-103.94183603 293.8376186 -113.47123226 325.37590226 -113.28587723 357.76925945 C-113.28468071 359.11209347 -113.28423326 360.45492834 -113.28448868 361.79776287 C-113.28294311 364.57754218 -113.27479394 367.35718915 -113.26121902 370.13693523 C-113.24403137 373.70116014 -113.24041138 377.26524343 -113.24116421 380.82950497 C-113.24082806 384.2469422 -113.23200788 387.66433267 -113.22337723 391.08175945 C-113.2222644 392.36181866 -113.22115158 393.64187786 -113.22000504 394.96072674 C-113.21362518 396.13665386 -113.20724533 397.31258099 -113.20067215 398.52414227 C-113.19686035 399.56113262 -113.19304855 400.59812298 -113.18912125 401.66653728 C-113.218983 404.13319544 -113.218983 404.13319544 -112.05540848 406.12863445 C-22.92950868 406.14576473 66.19639133 406.16166546 155.32229233 406.17097759 C156.64025887 406.17111565 157.95822542 406.17125371 159.31613034 406.17139595 C187.25799892 406.17431842 215.1998675 406.17703516 243.14173612 406.17951413 C257.17717093 406.18075956 271.21260573 406.18204453 285.24804053 406.18336689 C287.36527667 406.18356614 289.4825128 406.18376426 291.59974893 406.18396233 C324.21498157 406.18702351 356.83021384 406.19093457 389.44544601 406.197299 C390.49790109 406.19750435 390.49790109 406.19750435 391.57161789 406.19771385 C402.88459248 406.19992631 414.19756706 406.20220989 425.51054163 406.20450289 C458.08227033 406.21110372 490.65399874 406.21718159 523.22572803 406.21977425 C523.89507246 406.21982778 524.56441689 406.21988132 525.25404449 406.21993647 C539.28567311 406.22104971 553.31730174 406.22193726 567.3489304 406.22254944 C573.9191329 406.22283762 580.48933539 406.22316326 587.05953789 406.2235117 C588.35271616 406.22357912 589.64589444 406.22364654 590.97825994 406.22371601 C611.83979957 406.22490019 632.70133708 406.22954486 653.56287585 406.23546649 C674.50853265 406.24133876 695.45418734 406.2436062 716.39984494 406.24213583 C728.86162958 406.24137216 741.32340653 406.24343045 753.78518979 406.249432 C762.09314122 406.25316164 770.40108757 406.2533125 778.70903934 406.25046627 C783.45334729 406.24894594 788.19764061 406.24906398 792.94194704 406.25351764 C797.24801123 406.2575295 801.5540492 406.25703849 805.86011293 406.25277443 C807.4177708 406.25205334 808.97543053 406.2530507 810.53308601 406.2558697 C812.6304722 406.25942827 814.72776269 406.25695341 816.82514566 406.25283295 C817.99172475 406.25298893 819.15830384 406.25314491 820.36023381 406.25330562 C822.87509634 406.42220089 822.87509634 406.42220089 823.94459152 405.12863445 C824.05412525 403.36852594 824.09368734 401.60402087 824.10572433 399.84054852 C824.12013565 398.14046642 824.12013565 398.14046642 824.1348381 396.40603924 C824.13908798 395.16465191 824.14333786 393.92326458 824.14771652 392.64425945 C824.1534166 391.36371685 824.15911667 390.08317425 824.16498947 388.76382732 C824.17553094 386.03321213 824.18134788 383.30262652 824.1848259 380.57199383 C824.18915403 377.81208947 824.20281134 375.05250774 824.22584152 372.29269695 C824.49858494 338.97010117 821.00843684 311.11993904 801.94459152 283.12863445 C801.4573259 282.39386883 800.97006027 281.6591032 800.46802902 280.90207195 C799.35454551 279.26766048 798.15875845 277.68970622 796.94459152 276.12863445 C796.28459152 276.12863445 795.62459152 276.12863445 794.94459152 276.12863445 C794.71771652 275.59238445 794.49084152 275.05613445 794.25709152 274.50363445 C791.94275794 270.31579273 789.482492 266.88049691 785.13209152 264.75363445 C784.41021652 264.54738445 783.68834152 264.34113445 782.94459152 264.12863445 C782.94459152 263.46863445 782.94459152 262.80863445 782.94459152 262.12863445 C780.46959152 261.13863445 780.46959152 261.13863445 777.94459152 260.12863445 C777.94459152 259.46863445 777.94459152 258.80863445 777.94459152 258.12863445 C775.8657044 256.65176457 773.81175779 255.31467707 771.63209152 254.00363445 C771.03718918 253.63109539 770.44228683 253.25855633 769.82935715 252.8747282 C766.15978455 250.63562372 766.15978455 250.63562372 761.94459152 250.12863445 C761.94459152 249.46863445 761.94459152 248.80863445 761.94459152 248.12863445 C743.13500014 240.80022223 725.32035349 235.79192238 704.9384346 235.87695217 C703.70240421 235.87404529 702.46637382 235.87113841 701.19288796 235.86814344 C697.79143145 235.86214297 694.39019923 235.86497771 690.98875871 235.87169934 C687.27705822 235.87680551 683.5653744 235.87024002 679.85367632 235.86521268 C673.35809252 235.85801042 666.86254201 235.85819541 660.36695671 235.863307 C650.70761766 235.8708875 641.04830656 235.86699642 631.38896768 235.86089038 C614.13508932 235.8503692 596.88122579 235.85126759 579.62734602 235.85704821 C564.52806059 235.86208205 549.42878058 235.86339145 534.32949448 235.86100292 C533.32738716 235.86085015 532.32527985 235.86069738 531.29280565 235.86053998 C527.22478462 235.85991729 523.15676359 235.85928049 519.08874257 235.85862045 C480.93832097 235.85250435 442.78790881 235.85804638 404.63748867 235.86881425 C370.75336035 235.87830524 336.86924706 235.87745598 302.98511887 235.86789227 C264.90385632 235.85717981 226.8226021 235.85293812 188.74133825 235.85911679 C184.68078836 235.85975821 180.62023846 235.8603839 176.55968857 235.86100292 C175.06000481 235.86124015 175.06000481 235.86124015 173.53002441 235.86148218 C158.44132823 235.8637558 143.35263807 235.86109903 128.26394272 235.85604382 C111.10506453 235.85032364 93.94620347 235.85175853 76.78732741 235.8626053 C67.18763217 235.86847368 57.58797404 235.86886726 47.98827977 235.86131295 C41.57201667 235.85682121 35.15578325 235.85963193 28.73952453 235.86832249 C25.08655811 235.8730693 21.43366527 235.87472921 17.78070122 235.86751053 C13.83734479 235.85979773 9.89410333 235.86767824 5.95074844 235.87695217 C4.82837805 235.87226984 3.70600767 235.86758751 2.54962605 235.86276329 C-8.38052223 235.91404951 -19.22514577 237.16751432 -29.68040848 240.44113445 Z " fill="#4B4B4B" transform="translate(1644.0554084777832,123.87136554718018)"/>
</svg>
